<svg width="80" height="80" viewBox="0 0 80 80" fill="none" xmlns="http://www.w3.org/2000/svg">
<path fill-rule="evenodd" clip-rule="evenodd" d="M22.5479 10.7266C22.0264 10.0856 21.4912 9.45896 20.9725 8.81312C20.7755 8.56804 20.8607 8.17015 21.0953 7.99139C21.1925 7.91643 21.3098 7.87702 21.4289 7.87702C21.4601 7.87702 21.4903 7.87991 21.5196 7.88471C21.6708 7.91162 21.7845 7.99716 21.8798 8.11922C22.1391 8.44406 22.4003 8.76891 22.6459 9.10528C22.8869 9.43686 23.116 9.77612 23.3287 10.1288C23.4698 10.3614 23.446 10.667 23.2233 10.8372C22.9997 11.0082 22.7192 10.9371 22.5479 10.7266ZM15.9084 14.6949C15.649 14.5123 15.3906 14.3297 15.1313 14.1462C14.1663 13.4628 13.2343 12.7257 12.2949 12.0068C11.8367 11.657 11.7973 10.9198 12.14 10.4758C12.3133 10.2499 12.5726 10.1029 12.8494 10.076C12.8805 10.0731 12.9117 10.0712 12.9428 10.0712C13.1839 10.0712 13.402 10.1634 13.5981 10.3134C14.5411 11.0323 15.4822 11.7511 16.4307 12.4604C17.2464 13.0678 18.0831 13.6618 18.8079 14.3903C18.9756 14.5565 19.092 14.7401 19.114 14.989C19.1351 15.2149 19.0691 15.4446 18.9335 15.6205C18.698 15.9261 18.2801 16.0328 17.941 15.8703C17.4892 15.6522 17.0521 15.4138 16.625 15.1495C16.3849 15.0015 16.1393 14.8583 15.9084 14.6949ZM11.921 20.866C11.5563 20.6786 11.3758 20.2288 11.5471 19.83C11.6672 19.5494 11.9513 19.3648 12.2381 19.3648C12.3389 19.3648 12.4406 19.3879 12.535 19.4369C13.3525 19.8579 14.2038 20.25 14.948 20.8016C15.2403 21.0188 15.2605 21.4927 15.0469 21.7704C14.9361 21.9127 14.772 22.0059 14.5961 22.0222C14.4815 22.0347 14.3725 22.0155 14.2671 21.9655C14.2286 21.9521 14.191 21.9396 14.1525 21.9261C13.9729 21.8704 13.7924 21.8127 13.6228 21.73C13.4615 21.6522 13.3021 21.5744 13.1435 21.4927C12.7357 21.286 12.3297 21.0756 11.921 20.866ZM11.0275 26.3173C10.9835 26.3029 10.9386 26.2885 10.8937 26.274C11.1384 26.3519 11.3363 26.4365 11.4931 26.6623C11.6406 26.8728 11.7011 27.1438 11.6589 27.4033C11.6195 27.6522 11.4857 27.881 11.2905 28.0299C11.0761 28.1943 10.8406 28.2318 10.584 28.2068C9.95988 28.1424 9.35504 27.9396 8.76028 27.7387C8.19027 27.5465 7.62208 27.3476 7.05848 27.1342C5.83414 26.671 4.60705 26.2221 3.37905 25.7695C3.14628 25.6839 2.95383 25.436 2.86952 25.2024C2.78062 24.9526 2.78795 24.67 2.89334 24.4249C2.99782 24.1808 3.19393 23.9867 3.43312 23.8925C3.54309 23.8483 3.64939 23.829 3.75386 23.829C3.89408 23.829 4.03154 23.8627 4.1745 23.9155C5.40434 24.3663 6.63785 24.8026 7.8686 25.2457C8.91607 25.6234 9.97912 25.9444 11.0275 26.3173ZM9.16259 34.5403C8.17744 34.5634 7.19778 34.4759 6.21996 34.3702C5.84789 34.3298 5.59862 33.9108 5.65819 33.5427C5.71867 33.1717 6.02293 32.9497 6.36109 32.9497C6.38858 32.9497 6.41699 32.9507 6.44631 32.9536C7.36732 33.0564 8.28741 33.1496 9.20566 33.2707C9.53558 33.314 9.76102 33.6753 9.70695 34.0088C9.66479 34.277 9.43294 34.5345 9.16259 34.5403ZM1.44906 42.9824C0.731501 43.0584 0.0735097 42.475 0.0056944 41.7263C-0.0621209 40.968 0.484067 40.2924 1.20163 40.2136C2.32424 40.0905 3.44686 39.9704 4.56856 39.8522C5.02311 39.8032 5.47674 39.7551 5.93128 39.7128C6.18605 39.6898 6.44082 39.6792 6.69466 39.6792C6.97509 39.6792 7.25552 39.6917 7.53594 39.7157C8.03264 39.757 8.42579 40.277 8.46978 40.7691C8.51743 41.2938 8.21501 41.7945 7.74855 41.982C7.20145 42.203 6.64793 42.3577 6.06875 42.4529C5.65269 42.523 5.23389 42.5759 4.81508 42.6201C3.6943 42.7422 2.57168 42.8594 1.44906 42.9824ZM6.27036 47.7629C7.31875 47.4236 8.3653 47.0795 9.4256 46.7835C9.52275 46.7566 9.61439 46.7393 9.70511 46.7393C9.79676 46.7393 9.88748 46.7566 9.98187 46.8018C10.1569 46.8844 10.2962 47.0392 10.364 47.2266C10.5024 47.612 10.3136 48.0685 9.94155 48.2107C8.91241 48.6057 7.86585 48.944 6.82205 49.2891C6.41699 49.4217 5.97527 49.2496 5.81856 48.8152C5.67652 48.4193 5.8653 47.8945 6.27036 47.7629ZM12.1804 54.2213C12.3307 54.6346 12.1941 55.1074 11.8569 55.3698C11.4252 55.7043 10.9615 55.9715 10.4905 56.2357C10.0946 56.4578 9.69778 56.6778 9.29181 56.8778C8.86659 57.0873 8.44137 57.2977 8.0189 57.5111C7.74763 57.6495 7.47454 57.7869 7.20145 57.9234C6.90361 58.0753 6.59569 58.2002 6.29877 58.3511C6.28594 58.3588 6.27311 58.3665 6.2612 58.3742C6.17964 58.4674 6.07608 58.5404 5.95603 58.5808C5.9487 58.5837 5.94137 58.5866 5.93403 58.5894C5.58304 58.7067 5.20273 58.6135 4.97912 58.2915C4.76834 57.9888 4.76101 57.5303 5.00203 57.242C5.32828 56.8508 5.82681 56.6654 6.26486 56.451C6.43257 56.3693 6.59477 56.2809 6.75698 56.1896C7.06032 56.0185 7.36365 55.8494 7.66516 55.6793C8.18294 55.3698 8.6998 55.0613 9.20383 54.7297C9.78118 54.3511 10.3558 53.9686 10.9661 53.6485C11.0578 53.6005 11.165 53.5793 11.2749 53.5793C11.4197 53.5793 11.5691 53.6158 11.6855 53.6716C11.9137 53.7783 12.0933 53.9772 12.1804 54.2213ZM15.1019 60.1291C15.1679 60.2233 15.1963 60.3444 15.178 60.4597C15.1587 60.5789 15.0973 60.6635 15.0121 60.7394C14.279 61.4121 13.5385 62.0753 12.8054 62.748C12.7146 62.8326 12.5644 62.8566 12.4498 62.8365C12.3297 62.8163 12.2198 62.7442 12.1474 62.6414C12.0722 62.5347 12.042 62.3982 12.0631 62.2675C12.0851 62.1329 12.1538 62.0388 12.2491 61.9513C12.9822 61.2795 13.73 60.6298 14.5209 60.0349C14.5942 59.9801 14.6804 59.9532 14.7665 59.9532C14.8939 59.9532 15.0213 60.0138 15.1019 60.1291ZM18.9124 65.3574C19.0114 65.4996 19.0526 65.6822 19.0242 65.8542C19.0059 65.9686 18.9619 66.0695 18.8941 66.1599C18.7209 66.4299 18.5074 66.6673 18.2957 66.9057C18.128 67.0969 17.9548 67.2853 17.7815 67.4708C17.3811 67.9014 16.9861 68.3348 16.5875 68.7673C15.7013 69.7303 14.8151 70.6933 13.9225 71.6496C13.7969 71.7851 13.6677 71.8793 13.4826 71.8975C13.3167 71.9139 13.149 71.86 13.0207 71.7505C12.886 71.638 12.799 71.4698 12.7843 71.2901C12.7687 71.1296 12.8127 70.923 12.9236 70.8048C13.8153 69.8427 14.7005 68.8749 15.5748 67.8956C15.9799 67.4429 16.3776 66.9826 16.7808 66.528C16.9595 66.3261 17.1401 66.1272 17.3224 65.9292C17.5506 65.6822 17.7788 65.4295 18.0354 65.2151C18.1399 65.1286 18.2663 65.0883 18.3937 65.0883C18.5926 65.0883 18.7924 65.1863 18.9124 65.3574ZM21.7029 71.7351C21.4921 71.6361 21.4033 71.3757 21.494 71.1556C21.6818 70.6933 21.8835 70.2397 22.0997 69.7918C22.3288 69.3189 22.5928 68.8634 22.8494 68.4059C22.9163 68.2877 22.9868 68.1954 23.1142 68.1445C23.1692 68.1234 23.226 68.1118 23.2838 68.1118C23.3497 68.1118 23.4166 68.1272 23.478 68.1551C23.5926 68.2108 23.6833 68.3108 23.7273 68.4338C23.7676 68.5453 23.7777 68.7087 23.7163 68.8153C23.4505 69.2863 23.1829 69.7543 22.9291 70.232C22.7027 70.6568 22.4782 71.0864 22.2574 71.516C22.2015 71.6198 22.1336 71.7015 22.0228 71.7457C21.9192 71.786 21.8037 71.7841 21.7029 71.7351ZM25.1578 78.6607C25.1578 78.6626 25.1569 78.6655 25.156 78.6674C25.1734 78.604 25.1927 78.5405 25.2101 78.4771C25.2073 78.4867 25.2037 78.4982 25.2009 78.5078C25.3008 78.1647 25.4062 77.8226 25.5171 77.4824C25.8635 76.4194 26.2401 75.368 26.6415 74.3271C27.1135 73.1008 27.5891 71.8764 28.0748 70.6558C28.1527 70.4607 28.3442 70.3473 28.5376 70.3473C28.6063 70.3473 28.676 70.3617 28.7392 70.3915C28.994 70.5126 29.0966 70.824 28.9903 71.0893C28.7649 71.6573 28.5422 72.2262 28.3195 72.7961C28.1124 73.3286 27.908 73.8639 27.7046 74.3992C27.525 74.8711 27.3398 75.344 27.1749 75.8226C26.9852 76.3714 26.7937 76.9211 26.6067 77.4728C26.4152 78.036 26.2117 78.5934 26.0101 79.1527C25.9185 79.4093 25.6051 79.5122 25.3778 79.4045C25.1963 79.319 25.0469 79.0787 25.1019 78.8644C25.1203 78.7962 25.1386 78.7279 25.1578 78.6607ZM34.2973 75.046C34.1269 75.0172 33.9647 74.8557 33.9601 74.6664C33.9399 73.8408 33.9702 73.0162 34.0004 72.1907C34.0041 72.0724 34.0985 71.9427 34.1855 71.8754C34.2671 71.8139 34.3651 71.7803 34.4641 71.7803C34.4898 71.7803 34.5154 71.7822 34.5411 71.787C34.6621 71.8091 34.7711 71.8793 34.8426 71.9821C34.9232 72.0984 34.9333 72.2166 34.9269 72.354C34.8884 73.1373 34.8444 73.9187 34.7647 74.6972C34.7427 74.9288 34.5063 75.0826 34.2973 75.046ZM41.296 76.0888C41.1256 74.8634 40.9918 73.6332 40.8882 72.3992C40.8323 71.7284 41.3107 71.1152 41.954 71.0527C41.9898 71.0489 42.0246 71.047 42.0603 71.047C42.6551 71.047 43.1848 71.5352 43.2379 72.1686C43.3415 73.4016 43.4744 74.6337 43.6293 75.8601C43.7566 76.8654 43.8923 77.8668 43.9702 78.8779C44.0132 79.4353 43.6228 79.9437 43.0858 79.9956C42.6395 80.0388 42.2546 79.7592 42.0796 79.3382C41.658 78.307 41.45 77.195 41.296 76.0888ZM49.2863 74.132C48.7429 73.2219 48.3672 72.2368 48.0061 71.2373C47.8164 70.7116 48.0757 70.1061 48.577 69.9071C48.6888 69.862 48.8043 69.8408 48.9188 69.8408C49.3175 69.8408 49.6996 70.0955 49.8463 70.5059C50.0213 70.9951 50.2018 71.4843 50.3686 71.9763C50.5143 72.4088 50.6472 72.8442 50.7874 73.2776C50.9368 73.7457 50.7389 74.2637 50.288 74.4434C49.948 74.578 49.487 74.4694 49.2863 74.132ZM57.0246 70.5511C56.6232 69.9763 56.2264 69.3968 55.8305 68.8163C55.5079 68.3415 55.5987 67.6678 56.0523 67.3199C56.2301 67.1844 56.4408 67.1181 56.6525 67.1181C56.9696 67.1181 57.284 67.267 57.4782 67.5525C58.1307 68.5136 58.7887 69.4718 59.4485 70.4271C60.0259 71.2613 60.5794 72.1099 61.154 72.9451C61.4308 73.3488 61.3492 73.9273 60.9643 74.2224C60.6646 74.4511 60.1872 74.4703 59.904 74.1955C59.1232 73.442 58.4762 72.5443 57.8201 71.6755C57.5442 71.3113 57.2876 70.9278 57.0246 70.5511ZM62.4205 64.2079C62.2308 64.0359 62.1905 63.737 62.3527 63.5265C62.4407 63.4112 62.5809 63.3468 62.7193 63.3468C62.8201 63.3468 62.9218 63.3814 63.0015 63.4544C63.7172 64.106 64.4247 64.7673 65.1423 65.417C65.3246 65.5823 65.3641 65.8687 65.2092 66.0695C65.058 66.2666 64.772 66.3002 64.5851 66.1397C63.851 65.5131 63.1381 64.8567 62.4205 64.2079ZM68.4277 58.0089C69.5155 58.8355 70.6271 59.6207 71.7543 60.3847C72.6414 60.9883 73.5266 61.6015 74.3441 62.3059C74.6758 62.5933 74.7327 63.1171 74.4614 63.4708C74.3285 63.6428 74.1306 63.7543 73.9198 63.7754C73.7823 63.7879 73.6494 63.7649 73.523 63.7062C72.9878 63.365 72.4416 63.046 71.9082 62.7019C71.4775 62.4232 71.0532 62.1349 70.6289 61.8456C70.1533 61.5236 69.6749 61.2045 69.2094 60.8662C68.5734 60.403 67.9346 59.9426 67.3078 59.4631C66.9156 59.1632 66.8817 58.5299 67.1749 58.1493C67.3243 57.9542 67.5479 57.8283 67.7843 57.8052C67.8137 57.8023 67.8411 57.8013 67.8677 57.8013C68.0748 57.8013 68.259 57.8802 68.4277 58.0089ZM71.4234 50.7864C71.8093 50.9767 72.1951 51.1699 72.5791 51.3679C72.8769 51.5197 73.161 51.6937 73.4515 51.858C73.5688 51.9243 73.6586 52.0089 73.7063 52.1415C73.7521 52.2674 73.7475 52.4087 73.6953 52.5308C73.643 52.6538 73.544 52.7489 73.4249 52.798C73.2957 52.8489 73.1811 52.8306 73.0547 52.7845C72.3353 52.5298 71.6461 52.205 70.9561 51.8734C70.6747 51.7379 70.5428 51.3833 70.6711 51.0853C70.7636 50.8691 70.9781 50.7326 71.1953 50.7326C71.2722 50.7326 71.3501 50.7499 71.4234 50.7864ZM76.7699 43.9406C77.6872 44.1482 78.6146 44.3049 79.5292 44.5346C79.827 44.6096 80.0452 44.8815 79.992 45.217C79.9673 45.3678 79.8866 45.5062 79.7675 45.5966C79.6383 45.6965 79.4962 45.7177 79.3413 45.7033C78.3919 45.6081 77.4379 45.5082 76.5032 45.3102C76.044 45.215 75.5822 45.1266 75.1295 45.0026C74.4852 44.8277 73.8428 44.6557 73.2041 44.4587C73.0263 44.4039 72.8824 44.3404 72.7688 44.1771C72.6615 44.0223 72.6175 43.8253 72.646 43.6379C72.6762 43.4563 72.7743 43.29 72.9154 43.1804C73.0189 43.1016 73.1738 43.0382 73.314 43.0382C73.3543 43.0382 73.3928 43.043 73.4286 43.0545C74.0829 43.2563 74.7409 43.4361 75.398 43.6177C75.8516 43.7427 76.3116 43.8368 76.7699 43.9406ZM72.6395 35.5033C72.1447 35.2582 71.9082 34.6374 72.1355 34.1078C72.2995 33.7243 72.678 33.4841 73.0648 33.4841C73.2004 33.4841 73.3379 33.5139 73.4671 33.5773C73.5239 33.6061 73.5816 33.6311 73.6394 33.6542C73.8941 33.7157 74.1553 33.7407 74.4128 33.7935C74.5631 33.8243 74.7116 33.8579 74.8628 33.8868C75.3292 33.9723 75.6564 34.4461 75.5767 34.9382C75.5391 35.1727 75.4145 35.3861 75.2312 35.5264C75.1029 35.6234 74.9572 35.6801 74.7996 35.6974C74.0857 35.8714 73.3085 35.831 72.6395 35.5033ZM77.2849 22.9795C77.3536 23.1688 77.3472 23.3821 77.2684 23.5676C77.1795 23.7723 77.0393 23.8685 76.8597 23.9694C76.0633 24.4182 75.2193 24.7642 74.3826 25.1169C73.4066 25.5273 72.4242 25.9184 71.4436 26.3154C71.0111 26.4922 70.5089 26.25 70.3439 25.7973C70.1789 25.3389 70.4071 24.819 70.8397 24.6431C71.8193 24.2452 72.7972 23.8406 73.7832 23.461C74.6309 23.1323 75.4823 22.8266 76.3391 22.5335C76.4234 22.5037 76.5105 22.4903 76.5948 22.4903C76.8917 22.4903 77.1703 22.6633 77.2849 22.9795ZM65.9203 18.6094C65.6408 18.2077 65.7196 17.607 66.1128 17.3158C66.6718 16.9006 67.218 16.4768 67.81 16.1164C67.9612 16.0241 68.1051 15.9607 68.2728 15.9607C68.3113 15.9607 68.3498 15.9645 68.391 15.9712C68.589 16.0068 68.7686 16.1221 68.8859 16.2922C69.0857 16.5777 69.0866 17.0015 68.863 17.2764C68.3708 17.88 67.7733 18.3567 67.1557 18.8103C66.7607 19.0996 66.2099 19.0217 65.9203 18.6094ZM60.1258 10.7862C60.858 9.79438 61.6076 8.82176 62.3802 7.86261C62.6817 7.48586 62.9896 7.11296 63.3021 6.74391C63.3846 6.64684 63.4689 6.55073 63.555 6.45654C63.654 6.34218 63.7786 6.2057 63.8895 6.11536C64.0023 6.0231 64.1223 5.94909 64.2561 5.89335C64.3615 5.84914 64.4513 5.83761 64.5448 5.83761C64.6098 5.83761 64.6786 5.84241 64.7555 5.84722C64.9333 5.85587 65.0955 5.95967 65.222 6.0971C65.4585 6.29028 65.5354 6.62473 65.474 6.92267C65.4511 7.13699 65.2953 7.37534 65.1744 7.52911C65.1148 7.60504 65.0552 7.68288 64.9938 7.75785C64.8335 7.96256 64.6712 8.16439 64.509 8.36813C64.2451 8.70067 63.9793 9.03032 63.7154 9.36189C63.0033 10.248 62.3105 11.1476 61.6315 12.0635C61.308 12.5008 60.6747 12.5575 60.2706 12.2144C59.8527 11.8617 59.8032 11.2235 60.1258 10.7862ZM54.8866 5.07355C54.9452 5.07355 55.0048 5.09373 55.0516 5.13313C55.1679 5.23116 55.1716 5.39551 55.091 5.51661C54.7235 6.0625 54.3743 6.62185 54.0151 7.17255C53.9289 7.30518 53.7328 7.31191 53.6219 7.21772C53.5642 7.16774 53.5257 7.0947 53.5202 7.01589C53.512 6.93612 53.5367 6.86885 53.5807 6.80446C53.9427 6.25664 54.3001 5.70402 54.685 5.17446C54.7336 5.10719 54.8096 5.07355 54.8866 5.07355ZM47.0319 0.0538206C47.272 0.167228 47.4187 0.446903 47.3719 0.71985C47.3096 1.08314 47.196 1.43586 47.0887 1.78665C47.0008 2.08362 46.9119 2.37868 46.823 2.67565C46.5132 3.7511 46.209 4.83039 45.9038 5.90777C45.8534 6.08653 45.7957 6.23165 45.6445 6.34698C45.5043 6.45558 45.3237 6.50075 45.1514 6.46904C44.9846 6.44021 44.8325 6.34218 44.7317 6.19801C44.6392 6.06442 44.5686 5.84626 44.6144 5.68095C44.871 4.76024 45.123 3.83952 45.3723 2.9188C45.5043 2.4373 45.6326 1.95292 45.7819 1.47526C45.8488 1.25806 45.9203 1.04373 46.001 0.830374C46.0825 0.614131 46.2017 0.416148 46.33 0.228737C46.4353 0.0768865 46.6131 0 46.7891 0C46.8734 0 46.9568 0.0182605 47.0319 0.0538206ZM37.3362 3.47623C37.4443 3.56849 37.4828 3.68094 37.5112 3.81934C37.6633 4.55264 37.7889 5.29267 37.9089 6.03463C37.9566 6.3316 37.7027 6.61128 37.4306 6.63819C37.2949 6.65068 37.1566 6.60743 37.0503 6.51709C36.933 6.41906 36.8798 6.28835 36.856 6.13747C36.7396 5.39743 36.625 4.65932 36.5646 3.9116C36.5426 3.64058 36.7332 3.39358 36.9934 3.36763C37.0063 3.36667 37.0209 3.36571 37.0356 3.36571C37.1446 3.36571 37.2519 3.40511 37.3362 3.47623ZM28.2324 8.09999C27.8686 7.18408 27.5103 6.26625 27.1895 5.33208C26.9036 4.49498 26.6489 3.64538 26.494 2.76791C26.4262 2.37964 26.7671 2.01347 27.1162 1.97887C27.1391 1.97694 27.1602 1.97598 27.1813 1.97598C27.4718 1.97598 27.7092 2.16724 27.8283 2.44403C28.1591 3.21674 28.4322 4.01444 28.7145 4.80925C29.0371 5.71459 29.3844 6.60936 29.739 7.50124C29.9067 7.927 29.6712 8.43157 29.2707 8.59015C28.8501 8.75737 28.402 8.52479 28.2324 8.09999ZM51.1558 34.0002C51.1751 33.9809 51.1925 33.9598 51.2117 33.9415C51.2264 33.9262 51.2429 33.9127 51.2566 33.8973C51.2227 33.9329 51.1897 33.9656 51.1558 34.0002ZM34.136 64.4367C34.1049 64.427 34.0737 64.4165 34.0416 64.4078C34.0435 64.4078 34.0444 64.4078 34.0471 64.4088C34.0481 64.4059 34.0481 64.404 34.0481 64.4021C34.0774 64.4136 34.1067 64.4251 34.136 64.4367ZM34.739 14.8449C34.7455 14.8429 34.7509 14.8401 34.7565 14.8391C34.8499 14.816 34.9434 14.7939 35.0369 14.7709C34.9379 14.7958 34.8371 14.8199 34.739 14.8449ZM30.9395 16.0943C31.888 15.7194 32.8439 15.3312 33.8254 15.0573C34.1369 14.9871 34.4458 14.9141 34.7565 14.8391C35.0671 14.7622 35.3778 14.6844 35.6903 14.6084C35.858 14.5681 36.0275 14.5287 36.1971 14.4893C36.1687 14.5777 36.1476 14.668 36.1118 14.7516C36.1082 14.7555 36.1054 14.7603 36.1018 14.7641C35.968 14.8747 35.8204 14.9688 35.6784 15.0698C35.5986 15.1255 35.5244 15.1899 35.452 15.2533C35.2082 15.4676 35.0314 15.7108 35.0011 16.052C34.9801 16.2865 34.9856 16.497 35.047 16.7257C35.0818 16.8545 35.1322 16.9746 35.1835 17.0976C35.2687 17.2985 35.3237 17.5099 35.3769 17.7214C35.3915 17.7963 35.4025 17.8713 35.4108 17.9472C35.3732 17.9962 35.3329 18.0453 35.2907 18.0924C35.2449 18.1452 35.2046 18.2029 35.1588 18.2557C35.0974 18.3096 35.0332 18.3576 34.9672 18.4028C34.728 18.5258 34.4788 18.6267 34.2378 18.7459C33.9399 18.8949 33.6467 19.0525 33.3424 19.188C33.062 19.3129 32.7577 19.4513 32.5561 19.7012C32.4205 19.8704 32.3224 20.0655 32.2354 20.2634C32.1117 20.5508 31.987 20.8362 31.8349 21.1082C31.8193 21.1342 31.8028 21.1592 31.7863 21.1851C31.7231 21.0919 31.6534 21.0083 31.5737 20.9247C31.395 20.7363 31.1687 20.6459 30.9524 20.5287C30.913 20.4989 30.8754 20.4681 30.8397 20.4345C30.671 20.2154 30.5492 19.9597 30.4016 19.7252C30.3173 19.5888 30.2156 19.4619 30.1038 19.3475C30.0222 19.2649 29.9425 19.1995 29.8408 19.1428C29.7555 19.0957 29.6419 19.0457 29.5484 19.0333C29.3706 19.0083 29.1892 19.0044 29.0141 19.0448C28.9042 19.0707 28.7942 19.0976 28.6851 19.1255C28.5046 19.1688 28.3213 19.2062 28.1362 19.2168C28.0042 19.0554 27.8906 18.8824 27.7504 18.7296C27.6129 18.5815 27.4425 18.4864 27.272 18.3855C27.2821 18.3922 27.2913 18.398 27.3013 18.4047C27.1483 18.3048 26.9879 18.2173 26.8303 18.125C27.2739 17.8367 27.7238 17.559 28.182 17.2937C29.0691 16.816 30.0075 16.4614 30.9395 16.0943ZM42.5671 13.7329C43.1371 13.7742 43.7044 13.8482 44.2717 13.9126C44.2588 13.9616 44.2478 14.0097 44.2433 14.0606C44.224 14.3086 44.2414 14.4777 44.3175 14.717C44.3734 14.8939 44.4696 15.0601 44.5668 15.2149C44.6721 15.3821 44.7794 15.5455 44.8802 15.7137C45.091 16.0654 45.2614 16.4383 45.5088 16.7651C45.6546 16.9564 45.8388 17.1332 46.0147 17.2966C46.0724 17.3485 46.1283 17.3994 46.1879 17.4484C46.4326 17.6541 46.7286 17.7819 47.0374 17.8377C47.3673 17.8963 47.7028 17.8896 48.0317 17.9645C48.0712 17.9799 48.1096 17.9962 48.1481 18.0145C48.171 18.0337 48.193 18.0529 48.215 18.0731C48.2645 18.1366 48.3085 18.2029 48.3507 18.273C48.4157 18.4172 48.4652 18.5642 48.5074 18.718C48.5147 18.7574 48.5211 18.7968 48.5275 18.8362C48.2673 18.7132 48.0308 18.5412 47.7715 18.4162C47.5946 18.3297 47.404 18.274 47.2161 18.2221C47.064 18.1817 46.9055 18.1702 46.7506 18.1433C46.6067 18.1173 46.4619 18.101 46.319 18.0751C46.1604 18.0472 46.0028 18.0107 45.8452 17.978C45.4649 17.9021 45.079 17.9146 44.6941 17.9088C44.663 17.9049 44.6318 17.9011 44.6007 17.8953C44.575 17.8002 44.5484 17.705 44.5246 17.6118C44.4504 17.3196 44.3596 17.0573 44.2176 16.7911C44.06 16.4931 43.7741 16.2355 43.4414 16.2029C43.2563 16.1856 43.0803 16.2048 42.9099 16.2894C42.7861 16.3518 42.6872 16.422 42.5809 16.5085C42.4507 16.6161 42.3133 16.7132 42.1703 16.8026C41.9678 16.9121 41.7598 17.0111 41.5462 17.0948C41.1458 17.2504 40.7334 17.3956 40.4016 17.6877C40.3246 17.755 40.2477 17.829 40.1808 17.9021C40.0882 18.0049 40.0222 18.1279 39.9535 18.2509C39.9031 18.3384 39.8664 18.4335 39.8261 18.5258C39.7839 18.6306 39.7335 18.7382 39.6795 18.8391C39.6364 18.9093 39.5952 18.9785 39.5613 19.0534C39.5209 19.1438 39.4971 19.2437 39.4733 19.3418C39.4632 19.3543 39.4531 19.3658 39.443 19.3773C39.312 19.5042 39.1782 19.6272 39.0389 19.7416C38.9198 19.8396 38.7924 19.9223 38.6613 20.0001C38.4689 20.101 38.2718 20.1866 38.0647 20.2509C37.8787 20.2875 37.6954 20.3038 37.5048 20.3182C37.2088 20.3394 36.9045 20.4153 36.6278 20.5258C36.4601 20.594 36.3034 20.6911 36.1457 20.7824C35.956 20.8939 35.7984 21.041 35.6426 21.2015C35.4483 21.4023 35.3567 21.6964 35.233 21.953C35.1899 22.0145 35.1432 22.0732 35.0937 22.1289C34.9012 22.3057 34.6923 22.4614 34.4916 22.6306C34.2048 22.8737 33.9271 23.1255 33.6797 23.4148C33.4808 23.6493 33.3048 23.9011 33.1454 24.1664C32.9538 24.4845 32.8063 24.8199 32.6817 25.1707C32.6294 25.3178 32.5763 25.4638 32.5323 25.6138C32.4654 25.831 32.3967 26.0376 32.4086 26.2702C32.4205 26.4845 32.4929 26.7036 32.6239 26.8689C32.8439 27.1496 33.1435 27.2668 33.479 27.2995C33.6228 27.313 33.7649 27.3447 33.9078 27.3658C34.0682 27.3908 34.2341 27.3995 34.3963 27.3908C34.619 27.3812 34.8362 27.2889 35.0442 27.2111C35.3558 27.0929 35.6683 26.9891 35.9909 26.9055C36.0202 26.8987 36.0486 26.892 36.0788 26.8843C36.121 26.8747 36.1622 26.8641 36.2035 26.8536C36.1357 26.8699 36.0679 26.8862 36 26.9035C36.3382 26.8219 36.6727 26.7248 37.0081 26.6344C37.0631 26.6248 37.1172 26.6191 37.1731 26.6162C37.4892 26.6479 37.8054 26.7133 38.1234 26.67C38.4909 26.62 38.8208 26.4749 39.1324 26.276C39.126 26.3231 39.1214 26.3701 39.1177 26.4172C39.1049 26.6239 39.1205 26.8219 39.1278 27.0256C39.1232 27.065 39.1159 27.1035 39.1067 27.1419C39.0297 27.3649 38.9198 27.5773 38.8364 27.7974C38.786 27.9329 38.7392 28.0703 38.709 28.2125C38.6907 28.2971 38.6879 28.3807 38.6879 28.4672C38.6888 28.5383 38.7108 28.6037 38.7319 28.6691C38.7319 28.6729 38.7319 28.6767 38.7328 28.6815C38.72 28.7652 38.7007 28.8488 38.6879 28.9324C38.676 29.0198 38.654 29.1073 38.6311 29.1928C38.5889 29.3207 38.5523 29.4495 38.5184 29.5802C38.5184 29.5792 38.5184 29.5782 38.5193 29.5763C38.4762 29.7214 38.4377 29.8675 38.3965 30.0126C38.336 30.1953 38.2297 30.3548 38.1481 30.5297C38.1078 30.6143 38.0647 30.6979 38.0272 30.7834C37.9951 30.8565 37.9713 30.9295 37.9355 31.0006C37.9273 31.0122 37.919 31.0227 37.9108 31.0333C37.9062 31.0372 37.8998 31.04 37.8952 31.0448C37.7825 30.9564 37.6478 30.9007 37.5112 30.9007C37.4342 30.9007 37.3591 30.917 37.2885 30.9535C36.9623 31.1237 36.6305 31.3053 36.2795 31.412C35.8836 31.4764 35.4777 31.4226 35.0781 31.4937C34.8343 31.5388 34.5942 31.6109 34.3514 31.6638C34.1067 31.7186 33.8584 31.7474 33.6118 31.7983C33.0592 31.9156 32.4819 32.0626 31.9614 32.2991C31.5426 32.4894 31.0788 32.745 30.8864 33.2073C30.7792 33.462 30.7187 33.7493 30.7691 34.028C30.7728 34.0511 30.7773 34.0732 30.781 34.0963C30.7682 34.1059 30.7526 34.1145 30.7389 34.1242C30.3604 34.3154 29.9746 34.4625 29.5677 34.573C29.5017 34.5884 29.4348 34.6028 29.3661 34.6162C29.3276 34.5768 29.2918 34.5374 29.2524 34.498C29.1351 34.3808 29.0105 34.2702 28.8877 34.1607C28.7337 34.0242 28.5761 33.8945 28.4121 33.7714C28.2434 33.6427 28.0675 33.5331 27.9117 33.3928C27.7907 33.2323 27.6771 33.065 27.568 32.8949C27.437 32.6931 27.283 32.5134 27.1226 32.3356C26.9898 32.1837 26.8688 32.0242 26.7607 31.8512C26.5673 31.5398 26.2841 31.3293 25.9405 31.2399C25.7847 31.2005 25.6417 31.1823 25.4804 31.1765C25.3549 31.164 25.2284 31.1621 25.1028 31.1707C24.9727 31.1919 24.8435 31.2198 24.717 31.2563C24.1406 31.4053 23.6467 31.757 23.1408 32.0703C22.7275 32.326 22.3472 32.6479 21.9797 32.9718C21.8285 33.1044 21.6828 33.2438 21.5316 33.3764C21.3693 33.5196 21.198 33.6436 21.0211 33.7666C20.682 34.0011 20.3384 34.252 20.0387 34.5422C19.707 34.8642 19.3331 35.2025 19.1507 35.6484C19.0169 35.9752 18.9032 36.3058 18.8162 36.6508C18.7236 37.0112 18.7438 37.388 18.709 37.7561C18.6842 38.0252 18.6421 38.2943 18.5788 38.5567C18.5193 38.7258 18.445 38.8902 18.3681 39.0526C18.3946 39.0324 18.424 39.017 18.4505 38.9978C18.4469 39.0055 18.4432 39.0122 18.4405 39.0199C18.413 39.0929 18.3855 39.165 18.3589 39.239C18.292 39.4187 18.2572 39.6138 18.1674 39.7811C18.0995 39.906 18.0363 40.0348 17.9685 40.1597C17.8897 40.2904 17.8118 40.4231 17.7412 40.5605C17.6285 40.7768 17.5653 41.0257 17.5176 41.2669C17.4636 41.536 17.4571 41.8224 17.4764 42.0954C17.4828 42.1867 17.4975 42.276 17.5085 42.3664C17.492 42.4625 17.47 42.5567 17.4507 42.6528C17.4095 42.8517 17.3627 43.0478 17.3105 43.2448L17.2381 43.4985C17.174 43.7254 17.1813 43.9695 17.1795 44.2049C17.1785 44.3827 17.2152 44.5576 17.2344 44.7335C17.2134 44.7883 17.1895 44.8431 17.1657 44.8969C17.0484 45.1641 16.9852 45.4582 16.954 45.7494C16.9274 45.9887 16.9238 46.2347 16.9485 46.474C16.9751 46.7355 17.0667 47.0055 17.1483 47.2554C17.2583 47.5889 17.4333 47.9176 17.6166 48.2098C17.7706 48.4539 17.9795 48.6663 18.1756 48.8748C18.1756 48.8758 18.1765 48.8777 18.1784 48.8787C18.2544 48.9632 18.3268 49.0449 18.391 49.1362C18.4817 49.3842 18.5202 49.6523 18.6182 49.8984C18.7126 50.1444 18.8446 50.401 19.0114 50.6038C19.2946 50.945 19.6593 51.2324 20.1083 51.2602C20.2431 51.2689 20.3805 51.2795 20.5152 51.2622C20.6371 51.2477 20.7563 51.2035 20.8745 51.1718C20.9212 51.1593 20.9661 51.143 21.0119 51.1266C21.1347 51.1853 21.2493 51.2612 21.3703 51.3265C21.5425 51.4227 21.7121 51.5255 21.8825 51.6264C22.1364 51.7754 22.4049 51.8984 22.6881 51.9714C22.9034 52.0262 23.1344 52.0128 23.3525 52.006C23.5101 52.0003 23.6659 51.9926 23.8226 51.9926C24.0765 52.0041 24.3321 52.0291 24.5787 52.0935C24.8976 52.2059 25.2174 52.3434 25.5528 52.377C25.7801 52.3991 26.0037 52.4001 26.2273 52.353C26.3538 52.327 26.4784 52.2953 26.6058 52.2809C26.7304 52.3741 26.856 52.4664 26.9962 52.5269C27.1785 52.6077 27.36 52.6211 27.546 52.6471C27.5854 52.699 27.6221 52.7518 27.6569 52.8076C27.7522 53.0152 27.8301 53.2324 27.8915 53.4534C27.9639 53.8436 28.0134 54.2405 28.1316 54.6202C28.2178 54.895 28.3461 55.1507 28.4845 55.4015C28.5376 55.5159 28.5788 55.6332 28.6137 55.7552C28.6732 56.0397 28.7163 56.329 28.7218 56.6202C28.7126 56.8182 28.7016 57.021 28.742 57.2132C28.7896 57.4419 28.84 57.638 28.9381 57.8427C29.0985 58.1867 29.2487 58.5356 29.4275 58.8681C29.4934 58.9921 29.5732 59.1017 29.6602 59.2113C29.7574 59.3324 29.8628 59.4534 29.9865 59.5467C30.0653 59.6053 30.1468 59.6582 30.2266 59.7149C30.3998 59.8456 30.5748 59.9772 30.7462 60.1108C30.9258 60.2521 31.1201 60.3742 31.3125 60.4962C31.3822 60.5414 31.4518 60.5856 31.5215 60.6308C31.6883 60.7394 31.8532 60.8489 32.0072 60.9787C32.1731 61.1161 32.3582 61.2314 32.5479 61.3266C32.6285 61.367 32.711 61.4035 32.7916 61.4438C32.8246 61.4717 32.8549 61.5006 32.8851 61.5313C32.9987 61.6438 33.1216 61.7187 33.259 61.8052C33.3277 61.8494 33.4139 61.8763 33.49 61.9013C33.6173 61.9436 33.7438 61.9792 33.8703 62.0157C33.9628 62.0493 34.0545 62.0878 34.1415 62.1329C34.3092 62.3473 34.4604 62.5741 34.6272 62.7903C34.7949 63.0094 34.9828 63.2276 35.1249 63.4679C35.2018 63.6207 35.277 63.7754 35.3668 63.9196C35.4511 64.0551 35.5666 64.1647 35.6775 64.2762C35.737 64.3463 35.7883 64.4184 35.8369 64.4982C35.8818 64.5885 35.9249 64.6808 35.9689 64.7721C35.672 64.7894 35.375 64.7826 35.0726 64.7327C34.9251 64.725 34.783 64.6875 34.6401 64.6394C34.487 64.5991 34.3349 64.5529 34.1846 64.5078C34.1424 64.4953 34.0774 64.4789 33.9967 64.4578C34.0673 64.5462 34.1397 64.6327 34.2103 64.7211C33.7575 64.6202 33.3076 64.5078 32.8585 64.3838C31.4949 63.9206 30.1643 63.365 28.8492 62.774C28.6549 62.6865 28.4625 62.5991 28.27 62.5116C27.6358 62.0801 27.0154 61.6293 26.3712 61.217C26.472 61.2824 26.5746 61.3468 26.6763 61.4131C26.3556 61.1968 26.0477 60.9691 25.7178 60.7682C25.5537 60.6673 25.3851 60.575 25.2192 60.478C25.057 60.3578 24.9058 60.2242 24.7519 60.0945C24.4494 59.8379 24.1186 59.6312 23.786 59.4179C23.8913 59.4852 23.9976 59.5534 24.1021 59.6207C23.9573 59.5246 23.8125 59.4294 23.6668 59.3362C23.2187 59.0306 22.7962 58.6788 22.4022 58.304C22.0301 57.9494 21.6204 57.6312 21.2566 57.267C21.1439 57.1296 21.0403 56.9835 20.934 56.8403C21.0294 56.8595 21.1228 56.8787 21.2227 56.8845C20.7764 56.5596 20.3915 56.1685 20.0983 55.6677C20.0909 55.6543 20.0827 55.6408 20.0754 55.6274C19.805 55.2516 19.5832 54.8412 19.4174 54.4126C19.3642 54.3011 19.312 54.1896 19.2616 54.0752C19.2011 53.9359 19.1507 53.7898 19.0984 53.6437C19.0306 53.5111 18.961 53.3785 18.8932 53.2468C18.6567 52.9517 18.5532 52.7163 18.204 52.0281C18.2004 52.0195 18.1949 52.0108 18.1903 52.0012C18.1591 51.9618 18.1243 51.9195 18.0904 51.8763C17.853 51.5774 17.6716 51.2381 17.5451 50.8595C17.4883 50.7326 17.4443 50.598 17.3994 50.4654C17.3618 50.3568 17.3243 50.2444 17.2867 50.1319C17.2317 49.9714 17.1804 49.8071 17.1309 49.6427C17.119 49.6033 17.1061 49.5639 17.0942 49.5245C17.0392 49.3323 16.9934 49.1401 16.9568 48.9498C16.9302 48.8047 16.9073 48.6615 16.8963 48.5202C16.8917 48.4616 16.888 48.4029 16.8853 48.3443C16.8706 48.4145 16.8624 48.4817 16.8541 48.5509C16.7652 48.2251 16.6763 47.8993 16.5966 47.5706C16.4848 47.0074 16.3831 46.4404 16.3006 45.8724C16.2053 45.2198 16.1512 44.5596 16.0568 43.9041C15.9615 43.2381 15.9084 42.5644 15.8626 41.8926C15.8296 41.413 15.8332 40.9315 15.8442 40.45C15.8772 39.833 15.9542 39.2227 16.0165 38.6086C16.0862 37.9291 16.1237 37.239 16.2328 36.5653C16.3437 35.8858 16.4372 35.2025 16.549 34.523C16.6305 34.0242 16.7423 33.536 16.866 33.0497C16.9513 33.0516 17.0347 33.0583 17.1199 33.0583C17.3362 33.0574 17.5552 33.0458 17.7715 33.0381C17.9172 33.0314 18.0629 33.017 18.2086 32.9997C18.347 32.9833 18.4844 32.9526 18.6201 32.9103C18.7456 32.8719 18.8648 32.7892 18.9775 32.72C19.1635 32.6037 19.3395 32.4596 19.4669 32.2731C19.6061 32.0646 19.6501 31.8185 19.6648 31.5696C19.6813 31.2592 19.7427 30.9632 19.8243 30.6671C19.8682 30.5259 19.9177 30.3865 19.9645 30.2481C19.9883 30.176 20.0103 30.1049 20.0341 30.0319C20.1184 29.7599 20.1459 29.4889 20.112 29.2044C20.079 28.9401 19.9736 28.696 19.8444 28.4711C19.7757 28.3538 19.6987 28.2433 19.63 28.126C19.6144 28.0876 19.5997 28.0501 19.5869 28.0117C19.5768 27.9434 19.5713 27.8771 19.5695 27.8079C19.5942 27.4754 19.6611 27.1496 19.7464 26.8286C19.8178 26.597 19.8921 26.3653 19.9571 26.1318C19.981 26.0463 20.0075 25.9569 20.0185 25.8675C20.0378 25.7281 20.0359 25.5849 20.0644 25.4485C20.0735 25.4033 20.0671 25.3581 20.0662 25.313C20.2559 25.0246 20.4428 24.7353 20.6344 24.4499C20.9634 23.9569 21.3263 23.4888 21.6818 23.0179C21.7231 22.9622 21.7671 22.9093 21.8092 22.8545C21.8138 22.8593 21.8184 22.8632 21.823 22.868C21.998 23.0121 22.2106 23.0756 22.4205 23.14C22.5341 23.1746 22.6633 23.1803 22.7816 23.189C22.875 23.1957 22.9658 23.2082 23.0565 23.2293C23.0666 23.2351 23.0776 23.2399 23.0895 23.2457C23.2947 23.3889 23.4872 23.5513 23.7108 23.6666C23.9078 23.7695 24.1351 23.8021 24.3496 23.8579C24.3853 23.8733 24.4201 23.8906 24.454 23.9088C24.6676 24.0703 24.8563 24.2673 25.0405 24.4634C25.0644 24.4903 25.0882 24.5162 25.1138 24.5431C25.1606 24.5979 25.2037 24.6537 25.2421 24.7142C25.2531 24.7421 25.2632 24.769 25.2724 24.7969C25.2751 24.817 25.2761 24.8363 25.277 24.8574C25.2669 24.9631 25.2486 25.0679 25.2357 25.1736C25.2183 25.3091 25.2229 25.4494 25.2247 25.5859C25.2266 25.8262 25.2165 26.0664 25.2559 26.3048C25.2788 26.4451 25.31 26.5835 25.3549 26.719C25.3998 26.8555 25.474 26.9881 25.5455 27.1111C25.5996 27.2063 25.6674 27.2947 25.737 27.3783C25.847 27.5071 25.9505 27.6859 26.1329 27.7003C26.2493 27.7089 26.3529 27.7012 26.4592 27.6455C26.5334 27.6061 26.5939 27.5619 26.6544 27.5052C26.7662 27.4023 26.8551 27.2861 26.9403 27.1611C27.1071 26.9103 27.2097 26.6335 27.2794 26.3384C27.305 26.2298 27.3224 26.1174 27.3298 26.0059C27.3389 25.8819 27.3398 25.7541 27.3673 25.6301C27.4058 25.4562 27.4406 25.2957 27.4187 25.114C27.4132 25.0631 27.4031 25.0141 27.3893 24.966C27.5909 24.9833 27.7953 24.9256 27.9667 24.8142C28.0693 24.745 28.161 24.6633 28.2572 24.5864C28.3387 24.522 28.4322 24.4739 28.5119 24.4067C28.731 24.2221 28.8391 23.9069 28.7805 23.6186C28.7475 23.4629 28.6934 23.3274 28.6008 23.1986C28.5459 23.1217 28.4762 23.0554 28.4093 22.9919C28.2948 22.8843 28.139 22.8113 28.0006 22.7401C27.9126 22.694 27.8228 22.6517 27.7357 22.6008C27.5002 22.4441 27.2656 22.2846 27.0154 22.1548C26.7772 22.0309 26.5261 21.9242 26.2942 21.7877C26.1723 21.7041 26.0495 21.6214 25.9148 21.5667C25.8048 21.5215 25.6903 21.4965 25.584 21.4465C25.5482 21.4196 25.5152 21.3898 25.4841 21.3591C25.4511 21.3168 25.4209 21.2735 25.3924 21.2274C25.2541 20.9266 25.1496 20.6113 25.0323 20.3019C24.9526 20.0943 24.8627 19.8848 24.761 19.6829C25.1248 19.3677 25.496 19.0621 25.8827 18.7757C25.9634 18.7151 26.0477 18.6642 26.1283 18.6065C26.2539 18.6777 26.3831 18.743 26.505 18.818C26.6699 18.9314 26.8193 19.0659 26.9604 19.2101C26.976 19.2303 26.9898 19.2495 27.0017 19.2706C27.0502 19.384 27.0878 19.5003 27.1236 19.6195C27.1639 19.7473 27.2308 19.8636 27.2922 19.9818C27.3921 20.1712 27.5772 20.3009 27.7605 20.3817C28.0437 20.5027 28.3626 20.4633 28.6549 20.4153C28.8153 20.3874 28.9747 20.3442 29.1333 20.3028C29.1938 20.2903 29.2542 20.2798 29.3166 20.274C29.3514 20.3221 29.3825 20.373 29.4137 20.4249C29.5319 20.67 29.6382 20.9199 29.7812 21.1534C29.9278 21.3937 30.1423 21.5455 30.3677 21.6897C30.4703 21.755 30.5858 21.7954 30.6949 21.8473C30.7141 21.8627 30.7334 21.88 30.7526 21.8973C30.9918 22.1818 31.231 22.4989 31.6259 22.5181C31.7817 22.5258 31.9036 22.5143 32.053 22.4576C32.1905 22.4057 32.2995 22.3009 32.3939 22.1914C32.4975 22.0732 32.5699 21.9155 32.6478 21.781C32.7641 21.582 32.8659 21.3783 32.9593 21.1659C33.0592 20.9391 33.1454 20.7055 33.259 20.4874C33.2718 20.4681 33.2856 20.4499 33.2993 20.4326C33.3213 20.4153 33.3433 20.399 33.3672 20.3836C33.5752 20.2788 33.797 20.2106 34.0114 20.1212C34.2075 20.0395 34.4018 19.953 34.5952 19.8684C35.0011 19.6954 35.4383 19.5753 35.7975 19.3024C35.9396 19.1947 36.0633 19.0611 36.176 18.9198C36.2154 18.8718 36.2502 18.8199 36.2832 18.7661C36.3648 18.6315 36.4564 18.5056 36.5242 18.3615C36.593 18.2173 36.603 18.0184 36.5985 17.8598C36.5966 17.7281 36.581 17.6003 36.5636 17.4715C36.5435 17.3456 36.5261 17.2187 36.5059 17.0928C36.4738 16.8833 36.4234 16.6767 36.3703 16.472C36.7927 16.1635 37.3032 15.9809 37.5992 15.509C37.865 15.0832 38.007 14.5979 38.2379 14.1529C38.2718 14.1019 38.3103 14.052 38.3479 14.003C38.8373 13.9059 39.3303 13.829 39.8279 13.8002C40.7407 13.7454 41.6553 13.7194 42.5671 13.7329ZM40.5327 25.9876C40.5666 25.9309 40.6005 25.8733 40.6335 25.8166C40.6261 25.83 40.6188 25.8444 40.6106 25.8579C40.5849 25.9011 40.5583 25.9444 40.5327 25.9876ZM50.0021 23.3802C49.9315 23.4379 49.8701 23.5177 49.8096 23.583C49.7931 23.6003 49.7785 23.6176 49.762 23.6339C49.476 23.9011 49.159 24.1308 48.8666 24.3903C48.6531 24.5797 48.4441 24.793 48.2673 25.0218C48.1161 25.2169 47.9951 25.4302 47.8815 25.6503C47.8695 25.6589 47.8585 25.6666 47.8466 25.6743C47.7513 25.7176 47.6542 25.7531 47.5543 25.7848C47.4232 25.806 47.2922 25.8137 47.1584 25.8166C47.0411 25.806 46.9238 25.7897 46.8074 25.7637C46.7909 25.756 46.7744 25.7493 46.7579 25.7416C46.7304 25.7185 46.702 25.6935 46.6764 25.6686C46.4546 25.4139 46.2365 25.1582 45.9744 24.9468C45.7425 24.7584 45.4804 24.6104 45.2238 24.4605C45.3631 24.4403 45.5015 24.422 45.6399 24.4009C45.8342 24.3711 46.0285 24.3423 46.2227 24.3154C46.4271 24.2865 46.6305 24.2702 46.8331 24.2356C47.0878 24.1914 47.3362 24.1308 47.5818 24.053C47.777 23.9905 47.9594 23.905 48.1463 23.8214C48.4771 23.6676 48.8162 23.5292 49.1654 23.4292C49.3926 23.3831 49.619 23.3591 49.8499 23.3572C49.9022 23.362 49.9517 23.3697 50.0021 23.3802ZM50.1899 14.9525C50.5473 15.088 50.9047 15.2226 51.264 15.3504C51.7057 15.507 52.1547 15.6474 52.5919 15.8156C53.4322 16.1375 54.2213 16.5748 54.9993 17.0332C55.4236 17.3245 55.8287 17.6445 56.2374 17.9597C56.4775 18.1471 56.7158 18.3345 56.9476 18.5316C57.1758 18.7228 57.3857 18.94 57.5983 19.1495C58.4258 19.9588 59.3102 20.7075 60.1075 21.5542C60.3384 21.8069 60.573 22.0559 60.8067 22.3067C60.781 22.3144 60.7618 22.3134 60.7315 22.324C60.6381 22.3605 60.5473 22.4201 60.4639 22.4682C60.463 22.4691 60.4621 22.4701 60.4612 22.4701C60.354 22.5268 60.2477 22.5816 60.1423 22.646C60.0341 22.7142 59.937 22.7978 59.8362 22.8795C59.6392 23.0419 59.4256 23.188 59.2075 23.3216C59.136 23.3572 59.0637 23.3889 58.9885 23.4158C58.9445 23.4216 58.9005 23.4244 58.8556 23.4254C58.808 23.4235 58.7612 23.4225 58.7127 23.4216C58.6788 23.4225 58.6467 23.4273 58.6119 23.4379C58.5156 23.4561 58.4212 23.4811 58.3278 23.5119C58.2343 23.5426 58.1454 23.5974 58.0574 23.6407C57.9135 23.7128 57.7651 23.7656 57.613 23.8089C57.338 23.8646 57.0649 23.8886 56.7854 23.8896C56.5847 23.8742 56.3849 23.8454 56.1852 23.8194C55.9726 23.7916 55.7609 23.7743 55.5537 23.7253C55.3677 23.6512 55.1908 23.5542 55.0186 23.4485C54.7858 23.2851 54.5677 23.1063 54.3551 22.9131C54.0783 22.6613 53.7777 22.448 53.4634 22.2519C53.1766 22.0712 52.8595 21.9636 52.5296 21.904C52.2189 21.8473 51.8954 21.8598 51.5801 21.8559C51.4738 21.8483 51.3694 21.8358 51.2649 21.8098C50.9286 21.6906 50.5913 21.5446 50.2357 21.5148C50.1267 21.5052 50.0186 21.5003 49.9113 21.5003C49.4944 21.5003 49.0893 21.5695 48.6806 21.6974C48.2984 21.8175 47.941 22.0251 47.5855 22.2135C47.4095 22.3067 47.2363 22.4028 47.053 22.4826C46.9009 22.5498 46.746 22.6037 46.5866 22.6488C46.341 22.7007 46.0935 22.7459 45.8498 22.8026C45.584 22.866 45.3173 22.9218 45.0497 22.9746C44.7684 23.0294 44.4834 23.1015 44.213 23.2024C43.8914 23.3226 43.6311 23.5253 43.5468 23.8886C43.4771 24.1846 43.6082 24.4365 43.7383 24.6834C43.819 24.844 43.8987 25.0054 43.9885 25.1592C44.0921 25.3351 44.2497 25.4744 44.4055 25.5984C44.5209 25.6887 44.6382 25.7752 44.7464 25.8762C44.8169 25.9425 44.8848 26.0107 44.9526 26.0818C45.0268 26.1722 45.0955 26.2664 45.1569 26.3673C45.1963 26.4624 45.2302 26.5585 45.2623 26.6556C45.3164 26.8151 45.3989 26.9612 45.4804 27.1054C45.6032 27.3235 45.8433 27.4812 46.0514 27.5907C46.2282 27.6859 46.4317 27.7301 46.626 27.7647C46.8386 27.8012 47.0631 27.805 47.2785 27.7935C47.7083 27.7704 48.1225 27.6647 48.5074 27.4619C48.6421 27.3899 48.764 27.3159 48.8849 27.2245C49.1012 27.0621 49.2515 26.8613 49.3816 26.6229C49.4256 26.5431 49.4632 26.4586 49.5044 26.3778C49.6951 26.0837 49.9196 25.8204 50.1615 25.5696C50.2449 25.4869 50.3265 25.4033 50.408 25.3197C50.4658 25.4533 50.5263 25.5849 50.5968 25.7118C50.8672 26.1972 51.3602 26.4518 51.8037 26.7296C51.9779 26.8401 52.1511 26.9468 52.3362 27.0362C52.5726 27.1486 52.8219 27.2303 53.0739 27.2966C53.1875 27.3274 53.3021 27.3553 53.4167 27.3831C53.3772 27.4687 53.3424 27.558 53.3122 27.6493C53.2379 27.881 53.1738 28.1164 53.1152 28.3519C53.0794 28.4941 53.0565 28.6383 53.0253 28.7805C52.9878 28.8766 52.9401 28.9679 52.8897 29.0583C52.7614 29.2649 52.6212 29.4629 52.4874 29.6647C52.3004 29.9434 52.1905 30.2529 52.0429 30.5528C51.8926 30.8546 51.7185 31.1419 51.5591 31.437C51.4198 31.6945 51.2768 31.9483 51.1293 32.2001C50.9432 32.5095 50.7288 32.7882 50.5043 33.0679C50.2706 33.3591 50.0378 33.6523 49.7821 33.9233C49.5191 34.1722 49.2304 34.3865 48.9876 34.6604C48.7777 34.894 48.5697 35.1314 48.3516 35.3572C48.2187 35.486 48.0812 35.6138 47.9392 35.7282C47.919 35.7436 47.8989 35.7599 47.8796 35.7753C47.7669 35.6552 47.6487 35.5417 47.5204 35.4408C47.3591 35.3149 47.1776 35.2313 47.0044 35.1294C46.6837 34.8997 46.4317 34.5759 46.1393 34.3096C45.8333 34.0271 45.4584 33.8416 45.1084 33.6244C45.1258 33.6359 45.1432 33.6475 45.1615 33.659C45.1423 33.6465 45.123 33.634 45.1038 33.6215C45.0965 33.6177 45.09 33.6129 45.0827 33.609C44.7464 33.3918 44.4018 33.189 44.0581 32.9824C43.7218 32.7815 43.3882 32.5797 43.0464 32.3932C42.6835 32.1953 42.3307 31.9694 41.9467 31.8147C41.5719 31.6638 41.1641 31.6513 40.7783 31.5494C40.1688 31.3332 39.6263 30.9689 39.0701 30.6354C39.0242 30.6076 38.9757 30.5979 38.9253 30.5941C38.9903 30.4913 39.0591 30.3904 39.1159 30.2798C39.2011 30.1126 39.2827 29.9415 39.367 29.7733C39.4889 29.5254 39.5695 29.2553 39.6731 28.9987C39.7253 28.868 39.7647 28.7325 39.7904 28.5931C39.8078 28.498 39.816 28.4057 39.8344 28.3125C39.9232 28.0636 40.0277 27.8195 40.1294 27.5753C40.211 27.3764 40.2651 27.1573 40.288 26.941C40.3081 26.7652 40.3127 26.5883 40.3494 26.4163C40.419 26.2173 40.5134 26.0318 40.617 25.8473C40.6381 25.8098 40.661 25.7724 40.682 25.7349C40.902 25.3764 41.1806 24.9881 41.1311 24.5383C41.1045 24.2817 40.9918 23.9828 40.7902 23.83C40.4813 23.5974 40.1129 23.6176 39.7794 23.7771C39.4678 23.928 39.1745 24.1347 38.8776 24.3173C38.6164 24.4797 38.3708 24.6642 38.1078 24.8247C38.0317 24.8651 37.9538 24.9007 37.8723 24.9304C37.7816 24.9429 37.6908 24.9477 37.5983 24.9487C37.4599 24.9401 37.3215 24.9304 37.1831 24.9295C36.9797 24.9295 36.7964 24.9756 36.5985 25.0275C36.4757 25.0592 36.3611 25.1159 36.2401 25.1525C36.1018 25.1947 35.9643 25.238 35.825 25.2784C35.5492 25.3543 35.2742 25.4235 35.0021 25.5206C34.7684 25.6042 34.5374 25.7108 34.301 25.7868C34.2799 25.7897 34.2588 25.7906 34.2387 25.7925C34.1507 25.7829 34.0636 25.7695 33.9775 25.7599C33.9729 25.7589 33.9683 25.7579 33.9637 25.7579C33.9784 25.7022 33.9931 25.6465 34.0087 25.5917C34.0508 25.46 34.0957 25.3303 34.1424 25.2015C34.1883 25.0804 34.2515 24.9641 34.3157 24.8516C34.4824 24.5806 34.6703 24.3298 34.8838 24.0982C35.1863 23.8223 35.5116 23.5811 35.8241 23.3206C36.0101 23.1659 36.1815 22.9891 36.3419 22.8065C36.4747 22.6556 36.5911 22.4883 36.724 22.3365C36.7744 22.2932 36.8294 22.2538 36.8862 22.2173C37.02 22.15 37.1556 22.0953 37.2986 22.0501C37.4159 22.0261 37.535 22.0078 37.6542 22.0001C37.843 21.9867 38.0262 21.9713 38.2114 21.9309C38.4276 21.8838 38.6412 21.829 38.8492 21.7512C39.0609 21.6714 39.2625 21.5494 39.455 21.4263C39.7106 21.2639 39.9443 21.0727 40.1698 20.867C40.3631 20.6882 40.5712 20.5066 40.7334 20.2952C40.869 20.1154 40.9368 19.9309 40.9982 19.7291C41.0211 19.6522 41.044 19.5753 41.066 19.4975C41.0963 19.4177 41.1375 19.3466 41.1696 19.2678C41.2136 19.164 41.2511 19.0602 41.2979 18.9592C41.2988 18.9583 41.2988 18.9583 41.2997 18.9573C41.3611 18.9054 41.4253 18.8574 41.4922 18.8141C41.8367 18.6421 42.2097 18.5373 42.5543 18.3663C42.6927 18.2971 42.8292 18.224 42.9621 18.1471C42.9896 18.3941 43.0317 18.6363 43.1692 18.8468C43.2636 18.9929 43.4075 19.1188 43.5642 19.1851C43.7392 19.2581 43.8373 19.2668 44.0224 19.2745C44.0948 19.2764 44.1727 19.2601 44.2423 19.2322C44.2964 19.2457 44.3532 19.2553 44.41 19.2601C44.5906 19.2774 44.7702 19.2706 44.9507 19.2639C45.058 19.261 45.1679 19.2572 45.2761 19.2581C45.4199 19.2668 45.5629 19.2803 45.7068 19.3043C45.8635 19.3283 46.022 19.3552 46.1815 19.361C46.461 19.3744 46.7488 19.3937 47.0219 19.4638C47.1886 19.5244 47.3444 19.5984 47.4966 19.6935C47.5231 19.7108 47.5488 19.7281 47.5763 19.7445C47.8274 19.9088 48.0611 20.0616 48.347 20.151C48.8446 20.3067 49.4485 20.1404 49.7372 19.6637C49.8114 19.5426 49.8921 19.3937 49.9077 19.2457C49.9242 19.0871 49.9315 18.9295 49.9251 18.7699C49.9205 18.6671 49.9068 18.5633 49.8948 18.4614C49.8637 18.1837 49.8023 17.904 49.7216 17.6387C49.6511 17.4061 49.5338 17.187 49.4064 16.9852C49.3175 16.8458 49.1883 16.7219 49.0765 16.6065C48.9473 16.4739 48.7603 16.3691 48.6045 16.2894C48.3947 16.1798 48.1546 16.1212 47.9291 16.0683C47.7797 16.0328 47.6285 16.0087 47.4791 15.9751C47.4764 15.9732 47.4746 15.9712 47.4718 15.9684C47.3096 15.7675 47.1621 15.5503 47.0329 15.3235C46.9156 15.0813 46.8056 14.8343 46.6837 14.595C46.6131 14.4575 46.5371 14.3249 46.4647 14.1894C47.7138 14.371 48.9693 14.6036 50.1899 14.9525ZM64.6657 27.3985C64.8894 27.8502 65.1065 28.3048 65.3027 28.7719C65.551 29.3668 65.715 30.004 65.9112 30.6191C66.1164 31.2582 66.2951 31.8992 66.4436 32.5537C66.5224 32.9074 66.615 33.2563 66.7057 33.6071C66.5261 33.3572 66.3364 33.116 66.1531 32.8699C65.9533 32.6028 65.7453 32.3385 65.5602 32.0588C65.398 31.8128 65.2394 31.5619 65.08 31.3139C64.8894 31.016 64.6914 30.7248 64.4742 30.448C64.2662 30.1856 64.0169 29.9502 63.8336 29.6695C63.7512 29.5436 63.6742 29.4158 63.6018 29.2851C63.4808 29.0323 63.3791 28.7719 63.2929 28.5028C63.1995 28.2116 63.1426 27.9088 63.0703 27.6119C62.9319 27.0544 62.6991 26.5278 62.5461 25.9742C62.4975 25.6801 62.4654 25.3841 62.4462 25.0861C62.426 24.768 62.4058 24.4518 62.349 24.1395C62.338 24.0799 62.3224 24.0241 62.3105 23.9655C63.2013 25.0256 63.9958 26.1702 64.6657 27.3985ZM54.8435 27.8041C54.8444 27.8022 54.8444 27.8002 54.8454 27.7993C54.86 27.7503 54.8738 27.7012 54.8884 27.6522C54.8728 27.7032 54.8591 27.7531 54.8435 27.8041ZM67.1914 41.1381C67.1566 41.7561 67.0558 42.3731 66.9595 42.9834C66.8578 43.6168 66.7149 44.2309 66.5453 44.846C66.4803 45.0622 66.417 45.2794 66.3547 45.4966C66.0147 46.6115 65.639 47.7177 65.1817 48.7854C64.9727 49.2737 64.7638 49.7648 64.5448 50.2473C64.3377 50.7047 64.0856 51.1411 63.8382 51.5755C63.5166 52.1069 63.1692 52.6144 62.7917 53.1036C62.3839 53.6312 61.9953 54.1752 61.5756 54.6932C61.176 55.1843 60.7893 55.687 60.3851 56.1752C60.0488 56.5808 59.6941 56.9652 59.3276 57.341C58.895 57.76 58.4496 58.1608 58.0043 58.5644C57.5039 59.0181 57.0219 59.5005 56.5077 59.9378C55.9946 60.3703 55.4548 60.7672 54.9095 61.1517C54.4082 61.5034 53.8749 61.8119 53.3433 62.1147C53.0602 62.2694 52.7715 62.4117 52.4856 62.5568C52.656 62.1656 52.8072 61.7668 52.9548 61.365C53.0409 61.1277 53.1289 60.8903 53.2169 60.6538C53.2994 60.4328 53.3644 60.205 53.4295 59.9782V59.9792C53.4771 59.8177 53.5248 59.6553 53.5688 59.4938C53.6018 59.3698 53.6109 59.2343 53.6265 59.1065C53.6586 58.8355 53.7081 58.5664 53.7218 58.2934C53.7374 57.959 53.7502 57.6226 53.7576 57.2862C53.7612 57.1478 53.7612 57.0104 53.7429 56.872C53.7172 56.6923 53.6558 56.5145 53.6137 56.3386C53.5834 56.2069 53.5541 56.0772 53.5239 55.9455C53.5367 56.0022 53.5504 56.0589 53.5642 56.1156C53.5294 55.9522 53.4964 55.7879 53.4771 55.6216C53.4533 55.4025 53.4441 55.1834 53.4167 54.9652C53.3846 54.7096 53.2215 54.5 53.0043 54.4164C52.9383 54.3299 52.8531 54.2607 52.7577 54.2156C52.6688 54.1742 52.5745 54.1531 52.4782 54.1531C52.3948 54.1531 52.3114 54.1694 52.2326 54.2011C52.086 54.2626 51.9128 54.4058 51.8642 54.5702C51.8239 54.7096 51.7836 54.8479 51.7433 54.9873C51.7359 55.0171 51.7268 55.0459 51.7185 55.0757C51.7158 55.0834 51.7139 55.0911 51.7112 55.0988C51.713 55.0921 51.7158 55.0844 51.7176 55.0767C51.6956 55.1565 51.6727 55.2362 51.6498 55.317C51.6058 55.4544 51.5554 55.5889 51.4876 55.7168C51.3758 55.8984 51.2576 56.0772 51.1329 56.2482C51.0431 56.3722 50.9579 56.5087 50.8983 56.6519C50.858 56.7499 50.8186 56.847 50.77 56.9412C50.705 57.0431 50.6307 57.1392 50.5583 57.2372C50.5088 57.3045 50.4584 57.3708 50.4135 57.4419C50.3402 57.5601 50.277 57.6706 50.2321 57.8023C50.1982 57.9032 50.1716 58.0099 50.1487 58.1147C50.0781 58.4462 50.1404 58.7913 50.2431 59.1065C50.2733 59.2016 50.3173 59.2939 50.354 59.3871C50.3842 59.4688 50.408 59.5534 50.4309 59.6389C50.4942 59.9503 50.518 60.2675 50.5492 60.5846C50.584 60.9662 50.6307 61.3516 50.6335 61.736C50.6234 61.9167 50.5987 62.0964 50.5849 62.2771C50.5739 62.4261 50.5675 62.576 50.5693 62.7259C50.5702 62.9143 50.5977 63.0892 50.6509 63.2737C50.6573 63.2959 50.6747 63.3208 50.6848 63.3458C49.7794 63.6649 48.8556 63.9417 47.93 64.1945C47.7532 64.2348 47.5754 64.2713 47.3976 64.3098C47.3939 64.2358 47.3912 64.1618 47.3866 64.0878C47.3664 63.7495 47.3655 63.4112 47.3563 63.071C47.3481 62.7394 47.3481 62.4059 47.3289 62.0753C47.3078 61.7418 47.2317 61.4189 47.1547 61.0959C47.1327 60.971 47.119 60.8489 47.1126 60.725C47.2006 60.4914 47.3087 60.2646 47.4251 60.0464C47.5616 59.8263 47.7037 59.612 47.8521 59.3996C48.0602 59.1007 48.248 58.7922 48.4304 58.478C48.4872 58.3905 48.5449 58.304 48.6018 58.2175C48.7612 57.9724 48.8556 57.7812 48.9225 57.4948C48.9711 57.2833 48.9738 57.0488 48.9399 56.8345C48.8923 56.5366 48.8034 56.2953 48.6806 56.0301C48.6164 55.8907 48.5697 55.7456 48.5303 55.5976C48.4735 55.3333 48.4139 55.07 48.3012 54.8268C48.1683 54.5452 48.0162 54.2809 47.8622 54.0147C47.8475 53.9782 47.8338 53.9426 47.8201 53.9051L47.8173 53.8686C47.8329 53.6937 47.8494 53.5197 47.8769 53.3467C47.9181 53.0719 47.9768 52.8008 48.0281 52.5279C48.0785 52.255 48.128 51.983 48.1628 51.7062C48.1903 51.4803 48.227 51.2602 48.2856 51.0411C48.3763 50.7393 48.4689 50.4366 48.5889 50.1483C48.7264 49.8196 48.9088 49.5111 49.0737 49.1958C49.2588 48.847 49.4623 48.5058 49.6557 48.1617C49.8591 47.8003 50.0442 47.4284 50.2477 47.069C50.4383 46.7326 50.6051 46.3818 50.7691 46.0319C50.935 45.6754 51.1082 45.3323 51.2484 44.9632C51.3886 44.5923 51.4876 44.203 51.6049 43.8253C51.7277 43.4332 51.8642 43.0488 52.0109 42.6662C52.1648 42.2635 52.3234 41.8609 52.4837 41.4591C52.6753 40.9738 52.8439 40.4586 52.8925 39.9339C52.9374 39.436 52.9181 38.9353 52.9099 38.4365C52.9044 38.128 52.8146 37.7888 52.6368 37.5408C52.5561 37.4303 52.4278 37.3121 52.3041 37.2573C52.1886 37.2054 52.0026 37.1487 51.8716 37.1765C51.7827 37.1967 51.6947 37.2102 51.6113 37.2467C51.5151 37.2919 51.4244 37.3543 51.3336 37.4139C51.023 37.5735 50.6976 37.6984 50.3879 37.8599C50.0598 38.0309 49.7436 38.2241 49.4064 38.3712C49.0013 38.547 48.5715 38.6633 48.1527 38.7921C47.7916 38.9036 47.4297 39.0141 47.0658 39.1131C46.8505 39.1544 46.6287 39.1785 46.4088 39.1794C46.3455 39.1746 46.2814 39.1679 46.2182 39.1573C46.1696 39.116 46.1238 39.0728 46.0789 39.0266C45.9038 38.8219 45.7379 38.6095 45.5767 38.3923C45.3815 38.1338 45.2064 37.8589 45.0103 37.6004C44.7436 37.2496 44.4055 36.9497 44.0004 36.794C43.8281 36.7268 43.6522 36.6739 43.489 36.5874C43.3919 36.5124 43.3076 36.424 43.2242 36.3337C42.755 35.8032 42.3059 35.2515 41.8615 34.697C41.6232 34.4009 41.406 34.0867 41.1806 33.7801C41.0825 33.6446 40.9872 33.5071 40.8827 33.3764C40.7618 33.2246 40.628 33.0823 40.496 32.9411C40.3036 32.7325 40.101 32.5355 39.9095 32.3279C39.8408 32.2481 39.7922 32.1549 39.7335 32.0713C39.8802 32.1511 40.024 32.2356 40.1762 32.3029C40.3961 32.4 40.6206 32.4807 40.8543 32.5336C41.0477 32.5787 41.2401 32.6191 41.4308 32.6758C41.6892 32.769 41.9275 32.9045 42.1657 33.0458C42.4113 33.1919 42.6524 33.3428 42.8934 33.4966C43.1381 33.66 43.38 33.8262 43.6274 33.9848C43.5889 33.9608 43.5514 33.9358 43.5129 33.9118C43.5889 33.9617 43.665 34.0098 43.7429 34.0588C43.742 34.0588 43.742 34.0578 43.7411 34.0578C43.8639 34.1366 43.9885 34.2135 44.1113 34.2914C44.444 34.5105 44.7766 34.7277 45.112 34.9411C45.2687 35.0478 45.4044 35.1717 45.5391 35.3082C45.7774 35.584 46.0055 35.8772 46.285 36.1088C46.4876 36.276 46.7167 36.3894 46.9394 36.5172C47.0603 36.6047 47.1694 36.7027 47.2757 36.8075C47.3472 36.9017 47.4013 36.9987 47.4947 37.0824C47.634 37.2102 47.8256 37.2448 48.0043 37.2361C48.15 37.2294 48.2746 37.1477 48.3956 37.0737C48.5037 37.0074 48.6082 36.8796 48.6907 36.7902C48.7695 36.7056 48.8437 36.6182 48.9161 36.5288C49.2735 36.0924 49.5448 35.5792 49.9278 35.166C50.3595 34.7613 50.792 34.3596 51.2117 33.9415C51.4381 33.7157 51.6635 33.4889 51.8716 33.2428C52.064 33.0151 52.2345 32.7604 52.3958 32.5076C52.5754 32.2289 52.7513 31.9492 52.9346 31.6753C53.1133 31.411 53.2609 31.1256 53.4148 30.8449C53.522 30.6796 53.643 30.5297 53.7768 30.3884C53.9124 30.2548 54.0407 30.1164 54.1663 29.9723C54.2185 29.9137 54.2671 29.8521 54.3129 29.7887C54.4513 29.5888 54.531 29.4033 54.5915 29.1669C54.6456 28.9516 54.6667 28.7286 54.6978 28.5095C54.7308 28.2779 54.7785 28.0463 54.8389 27.8204C54.8912 27.6522 54.9471 27.485 55.0066 27.3197C55.0928 27.0785 55.1414 26.8324 55.0516 26.5835C54.9645 26.3471 54.7739 26.1702 54.5585 26.0693C54.1883 25.8983 53.7887 25.8291 53.4002 25.7224C53.2022 25.6484 53.0171 25.5552 52.8366 25.4456C52.6652 25.3312 52.4966 25.212 52.3261 25.0967C52.163 24.9852 51.9971 24.8709 51.8505 24.7353C51.7891 24.6527 51.7369 24.5672 51.6864 24.4778C51.6415 24.3855 51.5994 24.2923 51.5591 24.1991C51.5233 24.1174 51.4931 24.0338 51.4647 23.9511C51.4491 23.9107 51.4372 23.8665 51.4244 23.8242C51.4179 23.8041 51.4097 23.7848 51.4014 23.7656C51.5756 23.7743 51.7515 23.7714 51.9238 23.7723C52.0741 23.7839 52.2198 23.806 52.3664 23.8415C52.4581 23.879 52.5451 23.9242 52.6313 23.9742C52.8045 24.0953 52.9704 24.2221 53.1335 24.3615C53.3388 24.5364 53.5294 24.7152 53.7511 24.868C54.3001 25.2476 54.8994 25.5475 55.562 25.6051C55.8241 25.6282 56.0844 25.6493 56.3446 25.6724C56.6745 25.7022 57.0026 25.6945 57.3316 25.6801C57.6579 25.6676 57.9896 25.5811 58.3021 25.4908C58.4222 25.4571 58.5367 25.4081 58.6513 25.3543C58.7282 25.3187 58.8034 25.2764 58.8794 25.2409C58.9555 25.2476 59.0325 25.2524 59.1122 25.2524C59.3129 25.2514 59.5255 25.1928 59.7143 25.1169C60.0121 24.9996 60.2917 24.8161 60.5602 24.6373C60.6188 24.5979 60.6775 24.5575 60.7352 24.5162C60.7471 24.6392 60.7535 24.7623 60.7572 24.8862C60.7654 25.2236 60.7783 25.558 60.8122 25.8925C60.8892 26.6479 61.2007 27.3216 61.4134 28.0367C61.5105 28.3586 61.5774 28.6883 61.6874 29.0054C61.8212 29.3889 62.0008 29.7618 62.2125 30.1049C62.4086 30.4249 62.6487 30.7046 62.9126 30.9651C63.1454 31.1929 63.3892 31.4053 63.6164 31.6388C64.0352 32.1289 64.3972 32.6643 64.794 33.1727C65.0149 33.4572 65.2092 33.7637 65.4383 34.0396C65.5583 34.1837 65.6747 34.3298 65.7893 34.4778C65.8855 34.6037 65.9661 34.7402 66.0422 34.8805C66.2255 35.2803 66.3767 35.6936 66.5352 36.1059C66.714 36.572 66.9128 37.0276 67.1089 37.4851C67.1373 37.5533 67.1786 37.6119 67.2271 37.6619C67.2271 37.6984 67.2326 37.7349 67.2326 37.7705C67.2308 38.8921 67.2207 40.0156 67.1914 41.1381ZM51.4784 57.9167C51.5591 57.7812 51.6415 57.6466 51.7112 57.5053C51.779 57.365 51.834 57.218 51.9036 57.0786C51.965 56.9921 52.0329 56.9133 52.1053 56.8374C52.2015 56.7461 52.3023 56.6586 52.3976 56.5664C52.3976 56.5692 52.3985 56.5721 52.3994 56.575C52.426 56.6865 52.4517 56.7989 52.4819 56.9085C52.5039 56.9883 52.5351 57.0652 52.5607 57.143C52.58 57.2977 52.579 57.4534 52.579 57.6082C52.5781 57.736 52.5772 57.8638 52.5754 57.9916C52.5616 58.1992 52.5323 58.4039 52.4993 58.6096C52.4645 58.8278 52.4342 59.0469 52.3866 59.2622C52.3096 59.5207 52.2372 59.7802 52.1639 60.0397C52.0301 60.4828 51.8835 60.922 51.7313 61.3583C51.7139 61.4044 51.6984 61.4525 51.6819 61.4996C51.6663 61.1882 51.625 60.8787 51.6058 60.5683C51.5856 60.254 51.5939 59.9378 51.56 59.6245C51.5453 59.4746 51.5224 59.3247 51.4977 59.1767C51.4619 58.9777 51.4014 58.7884 51.3501 58.5962C51.3373 58.5241 51.329 58.4539 51.3254 58.3809C51.3318 58.3088 51.3419 58.2377 51.3565 58.1656C51.3914 58.0791 51.4335 57.9984 51.4784 57.9167ZM43.0162 64.9681C42.59 65.0172 42.1648 65.0633 41.7387 65.1046C41.3162 65.144 40.8891 65.1411 40.4658 65.1469C39.6282 65.1565 38.7924 65.1796 37.9557 65.1757C37.6679 65.1623 37.3792 65.1469 37.0906 65.1306C36.9806 64.9768 36.8697 64.824 36.7762 64.6587C36.7002 64.5011 36.6315 64.3386 36.5765 64.1724C36.5288 64.0272 36.5004 63.8812 36.4482 63.738C36.4069 63.6245 36.3529 63.5179 36.3162 63.4035C36.2722 63.2641 36.2337 63.1229 36.198 62.9806C36.2007 62.995 36.2044 63.0094 36.2071 63.0239C36.1824 62.9153 36.1567 62.8076 36.1302 62.7C36.1357 62.7202 36.1402 62.7413 36.1448 62.7615C36.0898 62.5366 36.0211 62.3204 35.9551 62.0974C35.8873 61.8648 35.8085 61.637 35.7013 61.4217C35.5629 61.1478 35.4172 60.922 35.1917 60.7134C35.0598 60.5923 34.8948 60.5097 34.7418 60.4213C34.5585 60.3165 34.3624 60.2444 34.1773 60.1435C34.082 60.0762 33.9876 60.0051 33.8913 59.9388C33.676 59.7889 33.4478 59.6639 33.2251 59.5303C32.9144 59.3122 32.6386 59.0546 32.3545 58.799C32.1593 58.6231 31.9769 58.4366 31.79 58.254C31.6205 58.0897 31.4289 57.9494 31.2594 57.7869C31.1274 57.6284 31.0074 57.4621 30.8901 57.2901C30.7728 57.1161 30.6399 56.9498 30.529 56.7701C30.4658 56.6298 30.4135 56.4866 30.3723 56.3386C30.342 56.1819 30.32 56.0243 30.299 55.8667C30.2586 55.5736 30.2055 55.2881 30.1358 55.0017C30.0909 54.8191 30.014 54.6548 29.9425 54.4827C29.8792 54.3347 29.8261 54.1838 29.783 54.0291C29.7271 53.7312 29.695 53.4284 29.6355 53.1315C29.5906 52.9085 29.542 52.6836 29.4604 52.4722C29.377 52.2559 29.2717 52.0502 29.1599 51.8503C29.0297 51.6158 28.84 51.4111 28.6375 51.2477C28.413 51.069 28.1884 50.9642 27.9154 50.895C27.843 50.8768 27.7687 50.8652 27.6954 50.8508C27.4022 50.6451 27.1052 50.4587 26.735 50.4366C26.5132 50.4222 26.3162 50.4299 26.1008 50.4683C26.0083 50.4846 25.9194 50.4981 25.8287 50.5048C25.507 50.4673 25.2027 50.352 24.8884 50.278C24.6199 50.2136 24.3276 50.2271 24.0554 50.2319C23.8217 50.2357 23.5889 50.2569 23.3552 50.2645C23.2618 50.2569 23.171 50.2444 23.0794 50.2251C22.9044 50.1521 22.7348 50.055 22.5653 49.9705C22.3811 49.8772 22.1969 49.7917 22.0081 49.7158C21.8257 49.6447 21.6681 49.5197 21.4811 49.4553C21.3006 49.3938 21.121 49.3429 20.935 49.3092C20.8607 49.2948 20.7865 49.2814 20.7132 49.265C20.6829 49.2516 20.6518 49.2372 20.6215 49.2218C20.6197 49.2199 20.6179 49.2179 20.6151 49.216C20.5968 49.191 20.5794 49.167 20.5629 49.141C20.4942 48.9748 20.4447 48.8027 20.3979 48.6269C20.3164 48.3155 20.1954 48.0041 20.0066 47.7436C19.7848 47.4399 19.5438 47.1555 19.3495 46.8335C19.2607 46.6432 19.1846 46.4491 19.1241 46.2472C19.1214 46.2232 19.1186 46.1992 19.1159 46.1742C19.125 46.0944 19.1369 46.0156 19.1525 45.9368C19.1892 45.8513 19.2322 45.7696 19.2744 45.685C19.3715 45.4861 19.4357 45.2756 19.4806 45.0574C19.5301 44.8239 19.5228 44.5778 19.5191 44.3356C19.5246 44.2789 19.5328 44.2232 19.5429 44.1665C19.6565 43.8561 19.7839 43.5524 19.8912 43.239C20.0103 42.8854 20.0836 42.5557 20.0341 42.1751C20.0149 42.03 19.981 41.8907 19.9636 41.7474C19.9663 41.733 19.9681 41.7186 19.97 41.7032C20.0662 41.4812 20.2073 41.2813 20.2935 41.0545C20.3741 40.8411 20.4392 40.6066 20.4621 40.3769C20.4804 40.178 20.474 39.9771 20.474 39.7772C20.474 39.7503 20.4749 39.7234 20.4758 39.6975C20.5812 39.5485 20.6866 39.3986 20.7553 39.2294C20.8351 39.0285 20.8818 38.7998 20.9276 38.5865C20.9542 38.4654 20.9744 38.3529 20.989 38.2385C21.0174 38.2395 21.0468 38.2395 21.0761 38.2414C21.0733 37.9223 21.0513 37.6023 21.0532 37.2832C21.0642 37.1544 21.0834 37.0276 21.1127 36.8998C21.1366 36.8181 21.1613 36.7364 21.1851 36.6547C21.2704 36.5663 21.3547 36.4769 21.4417 36.3875C21.7387 36.1097 22.0667 35.8647 22.382 35.6119C22.7825 35.2948 23.117 34.8949 23.4716 34.523C23.7062 34.2943 23.9482 34.0694 24.2103 33.8733C24.4678 33.6821 24.7344 33.4956 25.0085 33.3284C25.09 33.289 25.1743 33.2525 25.2605 33.2207C25.31 33.3207 25.3631 33.4197 25.4181 33.5168C25.5152 33.6897 25.6371 33.8464 25.7398 34.0165C25.9469 34.4432 26.1439 34.868 26.4866 35.2025C26.7075 35.4207 26.9861 35.5744 27.2299 35.7638C27.4296 35.9166 27.6184 36.0867 27.81 36.2501C27.8961 36.3241 27.9823 36.399 28.0675 36.4721C28.3204 36.6845 28.5816 36.819 28.8959 36.894C29.1232 36.9468 29.3715 36.9036 29.5979 36.8604C29.827 36.8171 30.0561 36.7633 30.2825 36.7018C30.6802 36.5951 31.0404 36.3837 31.3941 36.1761C31.7753 35.9512 32.1602 35.6878 32.4187 35.313C32.5085 35.1794 32.5955 35.0381 32.6523 34.8863C32.7431 34.6451 32.7531 34.4682 32.7586 34.2116C32.7605 34.1424 32.7504 34.079 32.733 34.0184C33.182 33.7935 33.6668 33.6273 34.1424 33.4841C34.6272 33.3399 35.0836 33.1131 35.5693 32.9728C35.9176 32.9045 36.2722 32.8661 36.615 32.7719C37.0145 32.6643 37.3829 32.4173 37.7486 32.226C37.9099 32.1414 38.0345 32.0463 38.1096 31.8704C38.1509 31.7743 38.1637 31.6715 38.16 31.5696C38.2608 31.5023 38.3525 31.4235 38.435 31.3264C38.4038 31.4245 38.3956 31.5292 38.4414 31.6244C38.6283 32.0146 38.8034 32.424 39.06 32.7719C39.2359 33.0122 39.4385 33.2332 39.6236 33.4658C39.8398 33.7388 40.0497 34.0146 40.2385 34.3106C40.4447 34.6345 40.6362 34.9689 40.8424 35.2938C41.0349 35.5975 41.2411 35.8935 41.4436 36.1914C41.6589 36.5076 41.8734 36.8248 42.0988 37.1352C42.2986 37.411 42.4984 37.6965 42.7806 37.8839C43.0235 38.0454 43.2893 38.1453 43.544 38.2779C43.5532 38.2866 43.5633 38.2943 43.5715 38.302C43.6448 38.4029 43.7117 38.5076 43.7713 38.6182C43.8318 38.7345 43.8923 38.8498 43.9528 38.9651C43.9757 39.0093 43.9986 39.0535 44.0215 39.0987C44.4595 39.9502 44.981 40.9747 45.989 41.1151C46.7506 41.2198 47.5039 41.0103 48.2132 40.7345C48.8849 40.4731 49.564 40.1818 50.189 39.8099C50.5061 39.6206 50.8012 39.3995 51.1045 39.19C51.0697 39.4159 51.0294 39.6408 50.9735 39.8618C50.8892 40.1155 50.7893 40.3654 50.6848 40.6095C50.573 40.8738 50.4722 41.1429 50.3613 41.4091C50.1423 41.9291 49.9388 42.4519 49.7675 42.9921C49.6007 43.5245 49.4385 44.056 49.2176 44.5673C49.1122 44.8095 48.9876 45.0449 48.8749 45.2823C48.7612 45.5168 48.6458 45.7465 48.522 45.9733C48.0061 46.822 47.4489 47.6408 46.9504 48.5C46.9989 48.4164 47.0475 48.3328 47.0961 48.2501C46.9293 48.5308 46.7469 48.8143 46.6122 49.1141C46.4986 49.365 46.4097 49.6254 46.3217 49.8868C46.2209 50.1925 46.121 50.4971 46.0321 50.8095C45.9579 51.0728 45.9212 51.3487 45.8672 51.6178C45.7526 52.1934 45.5794 52.7576 45.5088 53.341C45.4942 53.4611 45.4768 53.5812 45.4648 53.7014C45.4218 54.1166 45.4685 54.5048 45.606 54.897C45.6252 54.9546 45.6573 55.0094 45.6848 55.0632C45.7664 55.2237 45.8397 55.3698 45.935 55.5169C45.9964 55.6139 46.055 55.712 46.1109 55.8119C46.1531 55.9032 46.1897 55.9964 46.2181 56.0945C46.2612 56.2415 46.2951 56.3914 46.3501 56.5356C46.4207 56.7201 46.5178 56.8931 46.6003 57.0719C46.527 57.1988 46.4546 57.3247 46.3822 57.4525C46.0468 57.983 45.6106 58.4405 45.3054 58.9941C45.057 59.4419 44.8179 59.9109 44.7198 60.4213C44.6822 60.625 44.685 60.8499 44.6941 61.0604C44.6978 61.145 44.7024 61.2305 44.7152 61.317C44.7436 61.4938 44.783 61.6697 44.8224 61.8446C44.9251 62.3876 44.8838 62.9451 44.8976 63.4967C44.9049 63.787 44.9049 64.0772 44.9205 64.3684C44.926 64.4876 44.937 64.6096 44.9544 64.7288C44.3092 64.8124 43.6641 64.8941 43.0162 64.9681ZM17.514 30.7267C17.6313 30.3509 17.7605 29.98 17.9108 29.6186C18.0858 29.2005 18.2737 28.7892 18.4505 28.373C18.456 28.3615 18.4606 28.35 18.4661 28.3394C18.4817 28.3817 18.4826 28.4278 18.5028 28.4682C18.6017 28.6719 18.7337 28.8363 18.8703 29.0102C18.9271 29.0804 18.9766 29.1544 19.0215 29.2313C19.0545 29.3091 19.0829 29.387 19.1058 29.4687C19.114 29.5273 19.1204 29.585 19.1232 29.6436C19.0884 29.9598 18.9729 30.2673 18.9106 30.5787C18.873 30.7633 18.8464 30.9507 18.829 31.14C18.8079 31.362 18.8364 31.5831 18.84 31.8041C18.8382 31.8176 18.8364 31.83 18.8336 31.8435C18.829 31.856 18.8235 31.8685 18.818 31.881C18.7841 31.93 18.7484 31.9761 18.7081 32.0203C18.6137 32.103 18.5184 32.1799 18.412 32.2462C18.3534 32.2731 18.2929 32.2933 18.2306 32.3106C18.0601 32.3461 17.886 32.3673 17.7128 32.3759C17.4892 32.3894 17.2665 32.3952 17.0438 32.399C17.0869 32.2606 17.13 32.1222 17.1712 31.9829C17.2931 31.5658 17.4012 31.1458 17.514 30.7267ZM23.5999 20.7344C23.6384 20.6988 23.6778 20.6642 23.7163 20.6286C23.8492 20.9179 23.9692 21.212 24.0939 21.5052C24.1608 21.6609 24.2405 21.8117 24.3202 21.9607C24.4183 22.1462 24.5796 22.3019 24.7354 22.4336C24.8206 22.5066 24.9205 22.5652 25.0158 22.6219C25.057 22.645 25.101 22.6623 25.1487 22.6738C25.2284 22.6988 25.2871 22.718 25.3631 22.7363C25.4263 22.7517 25.4896 22.7632 25.5519 22.7767C25.6463 22.818 25.7324 22.8718 25.8241 22.9199C25.9258 22.9727 26.0349 23.0121 26.1402 23.0554C26.3309 23.1332 26.5196 23.2216 26.7103 23.3033C26.8963 23.3831 27.0796 23.4744 27.2619 23.5648C27.4581 23.6637 27.6725 23.7214 27.8704 23.8204C27.8448 23.8406 27.821 23.8617 27.7962 23.8829C27.722 23.9473 27.656 24.0222 27.5882 24.0943C27.5607 24.1183 27.5323 24.1414 27.502 24.1616C27.4901 24.1674 27.4764 24.1722 27.4617 24.177C27.4452 24.1798 27.4278 24.1827 27.4104 24.1827C27.3389 24.1731 27.2674 24.1587 27.196 24.1501C27.1364 24.1424 27.0732 24.1385 27.0154 24.1501C26.8871 24.177 26.8056 24.2317 26.7148 24.3269C26.6562 24.3894 26.6305 24.496 26.6131 24.5777C26.5884 24.6921 26.6223 24.818 26.6562 24.9256C26.6883 25.0294 26.7295 25.1265 26.7607 25.2303C26.7616 25.2418 26.7625 25.2514 26.7634 25.263C26.7533 25.3591 26.7268 25.4485 26.7011 25.5436C26.6773 25.6359 26.6709 25.7349 26.6626 25.8319C26.6479 25.9992 26.6186 26.1606 26.5765 26.3211C26.5334 26.4442 26.4793 26.5595 26.4188 26.6719C26.3968 26.7046 26.3758 26.7354 26.3538 26.7661C26.3254 26.6854 26.2997 26.6047 26.2786 26.521C26.2218 26.1952 26.2392 25.8569 26.2264 25.5263C26.2209 25.3639 26.2181 25.2044 26.2154 25.0429C26.2145 24.9035 26.2016 24.7642 26.1604 24.6296C26.1146 24.4807 26.0321 24.35 25.9423 24.225C25.7443 23.9463 25.5281 23.6897 25.3008 23.436C25.2266 23.3514 25.1523 23.2668 25.0708 23.1909C25.0286 23.1496 24.9846 23.1159 24.937 23.0794C24.8068 22.9823 24.6676 22.9343 24.5145 22.8891C24.3706 22.8478 24.2203 22.8401 24.0755 22.8036C23.9427 22.7517 23.8235 22.6806 23.6998 22.6046C23.7319 22.6248 23.763 22.645 23.7933 22.6661C23.5981 22.5383 23.4212 22.422 23.1866 22.3836C23.0666 22.3634 22.9428 22.3663 22.821 22.3653C22.6835 22.3576 22.5515 22.3394 22.4177 22.3038C22.3765 22.2884 22.338 22.2711 22.2995 22.251C22.2958 22.249 22.2931 22.2452 22.2903 22.2433C22.4113 22.0895 22.5268 21.9319 22.6514 21.7819C22.9538 21.4206 23.2728 21.0727 23.5999 20.7344ZM27.3032 13.3273C26.6626 13.6387 26.044 14.0001 25.4245 14.3537C24.9406 14.6305 24.4632 14.9141 24.005 15.2351C23.084 15.8809 22.2143 16.6142 21.4115 17.4138C20.9011 17.9222 20.4016 18.4364 19.9223 18.9766C19.5777 19.3648 19.2616 19.7848 18.9454 20.2C18.6366 20.6037 18.3232 21.0064 18.0281 21.4206C17.6661 21.9328 17.3224 22.4605 16.9778 22.9881C16.5838 23.5878 16.2319 24.2221 15.8946 24.8603C15.627 25.3629 15.3704 25.8685 15.1477 26.3951C14.9214 26.9276 14.6859 27.4562 14.4623 27.9896C14.1754 28.6729 13.9637 29.386 13.7676 30.102C13.7099 30.3067 13.6586 30.5143 13.6045 30.72C13.4322 31.2986 13.2544 31.8743 13.0922 32.4557C12.952 32.9545 12.842 33.4629 12.7403 33.9733C12.6303 34.5144 12.5451 35.0612 12.4361 35.6033C12.382 35.8656 12.3279 36.1261 12.2839 36.3894C12.2335 36.6835 12.2115 36.9853 12.174 37.2813C12.1052 37.8176 12.0319 38.3529 11.9641 38.8892C11.8752 39.6071 11.8587 40.3337 11.8514 41.0564C11.8395 42.0579 11.9265 43.0555 12.0777 44.0435C12.1575 44.5798 12.2848 45.1074 12.3829 45.6398C12.4855 46.1915 12.5863 46.7393 12.7036 47.2871C12.6963 47.2535 12.689 47.2218 12.6817 47.1901C12.6945 47.2496 12.7073 47.3102 12.7201 47.3698C12.7311 47.4198 12.7431 47.4707 12.7541 47.5207C12.798 47.7196 12.842 47.9195 12.8879 48.1175C13.0583 48.8912 13.2416 49.6648 13.5064 50.4106C13.752 51.1065 14.0581 51.7734 14.3651 52.4424C14.3789 52.4731 14.3945 52.5029 14.4082 52.5337L14.5292 52.8777C14.7308 53.4592 14.9828 54.0185 15.2449 54.5731C15.5308 55.1766 15.8442 55.761 16.1806 56.3367C16.4683 56.8287 16.8166 57.2824 17.1602 57.735C17.5781 58.2819 18.0528 58.7701 18.5266 59.2651C18.9335 59.6908 19.3679 60.0916 19.8114 60.4751C20.7709 61.3064 21.768 62.0887 22.7641 62.872C23.3149 63.3055 23.9234 63.6716 24.5145 64.0368C25.0103 64.3434 25.5235 64.6068 26.044 64.8567C27.1419 65.3852 28.2288 65.9311 29.3358 66.4376C30.5042 66.971 31.6873 67.4862 32.9209 67.8312C33.533 68.0003 34.1507 68.1676 34.7766 68.28C35.353 68.3838 35.9304 68.4472 36.5114 68.4915C37.2775 68.5462 38.0409 68.5924 38.808 68.6106C39.4229 68.626 40.0405 68.6106 40.6555 68.601C41.2521 68.5904 41.8413 68.576 42.4352 68.5164C43.0116 68.4559 43.5853 68.3684 44.1589 68.2877C45.3549 68.1205 46.5407 67.9158 47.7165 67.6342C48.4377 67.4602 49.1498 67.2709 49.8563 67.0402C50.419 66.8547 50.9799 66.6644 51.538 66.4607C52.602 66.0695 53.6338 65.5573 54.6337 65.0162C55.2917 64.6587 55.946 64.2867 56.5856 63.8917C57.0787 63.589 57.5479 63.2449 58.0125 62.896C58.4597 62.5606 58.8721 62.1839 59.2937 61.8129C59.7354 61.4237 60.1808 61.0392 60.6207 60.6471C61.4858 59.8725 62.2986 59.0411 63.0593 58.1521C63.4157 57.737 63.7777 57.3295 64.1333 56.9152C64.4825 56.5087 64.7986 56.0743 65.124 55.6466C65.4795 55.1776 65.8333 54.699 66.1439 54.1963C66.5389 53.5553 66.9046 52.896 67.24 52.2184C67.4755 51.7437 67.667 51.2477 67.8595 50.7518C68.0822 50.1781 68.3177 49.6177 68.5028 49.0305C68.7246 48.3318 68.9601 47.6331 69.1507 46.9258C69.3074 46.3462 69.454 45.7648 69.5924 45.1814C69.7345 44.5884 69.8362 43.9897 69.9123 43.3842C69.9993 42.6835 70.0791 41.9887 70.0983 41.2813C70.1175 40.5836 70.1331 39.8858 70.1322 39.1871C70.1295 38.325 70.1826 37.4629 70.1212 36.6018C70.0653 35.7945 69.9727 34.9843 69.8692 34.1818C69.8014 33.6696 69.674 33.165 69.5558 32.6623C69.4623 32.2654 69.3633 31.8695 69.2708 31.4725C69.3019 31.609 69.3322 31.7474 69.3624 31.8848C69.2094 31.189 69.0371 30.5124 68.8181 29.8348C68.643 29.2909 68.4817 28.744 68.3177 28.1952C67.9484 26.9593 67.3674 25.807 66.7488 24.6931C66.4519 24.1587 66.1183 23.6445 65.792 23.1294C65.4924 22.6604 65.1661 22.2087 64.827 21.7723C64.1755 20.9362 63.4836 20.1298 62.7917 19.3302C62.3087 18.7728 61.8047 18.2375 61.2796 17.7214C60.9231 17.3706 60.5528 17.0332 60.1991 16.6776C59.794 16.2682 59.4146 15.8213 58.9738 15.4513C58.5129 15.0592 58.0473 14.6699 57.5745 14.2922C57.0035 13.8376 56.3703 13.4657 55.7499 13.0899C55.2477 12.7862 54.7372 12.5152 54.202 12.2788C53.72 12.0673 53.2251 11.8972 52.7357 11.7031C52.0878 11.4465 51.45 11.1879 50.7838 10.9909C49.6676 10.6613 48.5193 10.4335 47.3747 10.2451C46.2502 10.0577 45.1184 9.92893 43.9867 9.80399C43.2691 9.72518 42.5552 9.68097 41.8358 9.67328C41.7955 9.67232 41.7561 9.67232 41.7176 9.67232C41.1916 9.67232 40.6655 9.70308 40.1413 9.72614C39.6071 9.74729 39.0838 9.78573 38.5541 9.86934C37.8512 9.97987 37.1602 10.1673 36.4702 10.3412C36.1173 10.4297 35.7663 10.5258 35.4144 10.6161C34.9003 10.7401 34.3871 10.8689 33.8739 10.9967C33.2654 11.137 32.6487 11.26 32.0539 11.458C31.494 11.6445 30.9405 11.8511 30.3906 12.0654C29.8811 12.2653 29.3743 12.4671 28.8675 12.6671C28.3424 12.8746 27.8136 13.0794 27.3032 13.3273Z" fill="#2A2D2C"/>
</svg>
